<?xml version="1.0" encoding="UTF-8" standalone="no"?>
<!-- Created with Inkscape (http://www.inkscape.org/) -->

<svg
   xmlns:dc="http://purl.org/dc/elements/1.1/"
   xmlns:cc="http://creativecommons.org/ns#"
   xmlns:rdf="http://www.w3.org/1999/02/22-rdf-syntax-ns#"
   xmlns:svg="http://www.w3.org/2000/svg"
   xmlns="http://www.w3.org/2000/svg"
   xmlns:sodipodi="http://sodipodi.sourceforge.net/DTD/sodipodi-0.dtd"
   xmlns:inkscape="http://www.inkscape.org/namespaces/inkscape"
   width="46.165436mm"
   height="19.434515mm"
   viewBox="0 0 46.165436 19.434515"
   version="1.1"
   id="svg178"
   inkscape:version="0.92.3 (2405546, 2018-03-11)"
   sodipodi:docname="cloud.svg">
  <defs
     id="defs172" />
  <sodipodi:namedview
     id="base"
     pagecolor="#ffffff"
     bordercolor="#666666"
     borderopacity="1.0"
     inkscape:pageopacity="0.0"
     inkscape:pageshadow="2"
     inkscape:zoom="0.35"
     inkscape:cx="-9.8998375"
     inkscape:cy="-248.98764"
     inkscape:document-units="mm"
     inkscape:current-layer="layer1"
     showgrid="false"
     inkscape:window-width="1920"
     inkscape:window-height="1025"
     inkscape:window-x="0"
     inkscape:window-y="27"
     inkscape:window-maximized="1" />
  <metadata
     id="metadata175">
    <rdf:RDF>
      <cc:Work
         rdf:about="">
        <dc:format>image/svg+xml</dc:format>
        <dc:type
           rdf:resource="http://purl.org/dc/dcmitype/StillImage" />
        <dc:title></dc:title>
      </cc:Work>
    </rdf:RDF>
  </metadata>
  <g
     inkscape:label="Calque 1"
     inkscape:groupmode="layer"
     id="layer1"
     transform="translate(-108.45267,-63.520837)">
    <path
       sodipodi:nodetypes="ccsccccccccccccccccssccccccccssccccccccc"
       inkscape:connector-curvature="0"
       id="path12487"
       d="m 124.71286,65.647698 -7.46998,-0.003 c -0.29451,-0.0482 -1.12731,-0.50741 -1.01126,-1.02066 0.1161,-0.51326 0.13397,-0.67987 1.10015,-1.1032 l 19.12692,0.0465 c 1.13103,0.72068 1.06408,1.55558 -0.004,1.98935 -1.0502,0.01 -0.9824,0.0355 -2.03666,0.0298 -0.28064,0.23388 -0.11772,0.45019 0.0241,0.63888 h 11.10024 c 2.85925,1.49296 1.85805,3.57806 -0.30386,3.73219 l -6.10569,0.10856 c -0.17888,0.2788 -1.10026,0.56388 -0.13284,1.19894 l 14.27183,0.17981 c 1.95707,0.67405 1.95328,3.22254 -1.16413,3.25795 -4.52872,0.0212 -4.54706,-0.10037 -7.86216,-0.0392 -0.36415,0.435999 -0.22297,0.68227 0.1051,0.84524 l 7.01486,0.0604 c 2.057,0.59808 2.1347,2.21691 -0.26978,3.1798 l -12.55324,-0.015 c -0.251,0.0856 -1.04613,1.09914 0.11147,1.209659 2.50948,0.239571 6.07771,-8.99e-4 6.58219,0.130781 0.39416,0.10327 2.18312,2.291349 -0.27106,2.83815 -9.8164,0.16151 -20.10389,-0.202831 -28.76636,0.0131 -2.47266,-0.90545 -1.81121,-2.02654 -0.11722,-2.86698 l 2.9322,-0.0952 c 1.20951,-0.0339 1.32682,-0.47668 0.679,-1.14999 -3.35518,-0.0962 -6.80099,0.15688 -9.38656,0.0538 -2.86245,-0.55853 -1.93529,-2.89223 -0.3852,-3.30806 0.14303,-0.0409 0.005,-0.14154 2.17833,-0.0881 2.55826,-0.057 2.10061,-0.0429 2.52271,-0.0881 0.80002,-0.0857 0.46109,-1.42214 0.10909,-1.43028 l -3.09412,-0.0715 c -1.06278,-0.40317 -1.99055,-2.46287 0.55636,-3.23525 l 10.4385,-0.27984 c 0.12818,-0.20809 0.29443,-0.39764 -0.0353,-0.82894 l -12.06101,0.0235 c -1.46344,-0.60434 -1.35285,-1.74661 -0.25562,-2.56148 l 14.35901,-0.0786 c 0.34461,-0.45528 0.36152,-0.85883 0.0731,-1.2724 z"
       style="display:inline;opacity:1;fill:#206874;fill-opacity:1;stroke:#000000;stroke-width:0;stroke-linecap:butt;stroke-linejoin:miter;stroke-miterlimit:4;stroke-dasharray:none;stroke-opacity:1" />
  </g>
</svg>
