<?xml version="1.0" encoding="UTF-8" standalone="no"?>
<!-- Created with Inkscape (http://www.inkscape.org/) -->

<svg
   xmlns:dc="http://purl.org/dc/elements/1.1/"
   xmlns:cc="http://creativecommons.org/ns#"
   xmlns:rdf="http://www.w3.org/1999/02/22-rdf-syntax-ns#"
   xmlns:svg="http://www.w3.org/2000/svg"
   xmlns="http://www.w3.org/2000/svg"
   xmlns:sodipodi="http://sodipodi.sourceforge.net/DTD/sodipodi-0.dtd"
   xmlns:inkscape="http://www.inkscape.org/namespaces/inkscape"
   width="93.489258mm"
   height="21.501682mm"
   viewBox="0 0 93.489258 21.501682"
   version="1.1"
   id="svg229"
   inkscape:version="0.92.3 (2405546, 2018-03-11)"
   sodipodi:docname="cloud-2.svg">
  <defs
     id="defs223" />
  <sodipodi:namedview
     id="base"
     pagecolor="#ffffff"
     bordercolor="#666666"
     borderopacity="1.0"
     inkscape:pageopacity="0.0"
     inkscape:pageshadow="2"
     inkscape:zoom="0.35"
     inkscape:cx="110.95833"
     inkscape:cy="-236.50976"
     inkscape:document-units="mm"
     inkscape:current-layer="layer1"
     showgrid="false"
     inkscape:window-width="1920"
     inkscape:window-height="1025"
     inkscape:window-x="0"
     inkscape:window-y="27"
     inkscape:window-maximized="1" />
  <metadata
     id="metadata226">
    <rdf:RDF>
      <cc:Work
         rdf:about="">
        <dc:format>image/svg+xml</dc:format>
        <dc:type
           rdf:resource="http://purl.org/dc/dcmitype/StillImage" />
        <dc:title></dc:title>
      </cc:Work>
    </rdf:RDF>
  </metadata>
  <g
     inkscape:label="Calque 1"
     inkscape:groupmode="layer"
     id="layer1"
     transform="translate(-76.47561,-64.755111)">
    <path
       style="display:inline;opacity:1;fill:#08e9ce;fill-opacity:1;stroke:#000000;stroke-width:0;stroke-linecap:butt;stroke-linejoin:miter;stroke-miterlimit:4;stroke-dasharray:none;stroke-opacity:1"
       d="m 109.4029,67.735832 -15.127392,-0.005 c -0.59641,-0.0676 -2.28289,-0.71092 -2.04788,-1.43003 0.2351,-0.71914 0.27129,-0.95256 2.22789,-1.54569 l 38.733742,0.0652 c 2.29042,1.00974 2.15486,2.17951 -0.007,2.78727 -2.12675,0.013 -1.98945,0.0498 -4.12443,0.0416 -0.56831,0.32768 -0.23838,0.63075 0.0489,0.89513 h 22.47898 c 5.79024,2.09175 3.76272,5.01316 -0.61535,5.22912 l -12.36457,0.15211 c -0.36225,0.39062 -2.22813,0.79003 -0.26902,1.679821 l 28.90174,0.25192 c 3.96326,0.94442 3.95555,4.51507 -2.35747,4.56469 -9.17107,0.0298 -9.2082,-0.14062 -15.9216,-0.055 -0.73743,0.61087 -0.45153,0.95592 0.21284,1.18425 l 14.2057,0.0846 c 4.16563,0.83795 4.32299,3.10608 -0.54631,4.45519 l -82.602642,0.16578 c -5.79673,-0.78254 -3.91914,-4.05228 -0.78007,-4.63489 0.28965,-0.0573 0.0102,-0.19831 4.4113,-0.12335 5.18072,-0.0798 4.25395,-0.0601 5.10872,-0.12335 1.62012,-0.12001 0.93377,-1.99255 0.22093,-2.00395 l -6.26588,-0.10013 c -2.1522,-0.56488 -4.03103,-3.45071 1.1267,-4.532881 l 21.138892,-0.39207 c 0.25957,-0.29156 0.59625,-0.55712 -0.0714,-1.16143 l -24.424622,0.033 c -2.9636,-0.84673 -2.73966,-2.44714 -0.51766,-3.58886 l 29.078282,-0.11014 c 0.69787,-0.6379 0.7321,-1.2033 0.14805,-1.78274 z"
       id="path9493"
       inkscape:connector-curvature="0"
       sodipodi:nodetypes="ccsccccccccccccccccccssccccccccc" />
  </g>
</svg>
