<?xml version="1.0" encoding="UTF-8" standalone="no"?>
<!-- Generator: Adobe Illustrator 16.0.0, SVG Export Plug-In . SVG Version: 6.00 Build 0)  -->

<svg
   xmlns:dc="http://purl.org/dc/elements/1.1/"
   xmlns:cc="http://creativecommons.org/ns#"
   xmlns:rdf="http://www.w3.org/1999/02/22-rdf-syntax-ns#"
   xmlns:svg="http://www.w3.org/2000/svg"
   xmlns="http://www.w3.org/2000/svg"
   xmlns:sodipodi="http://sodipodi.sourceforge.net/DTD/sodipodi-0.dtd"
   xmlns:inkscape="http://www.inkscape.org/namespaces/inkscape"
   version="1.1"
   id="Calque_1"
   x="0px"
   y="0px"
   width="283.465"
   height="283.465"
   viewBox="0 0 283.46499 283.46498"
   enable-background="new 0 0 841.89 595.28"
   xml:space="preserve"
   sodipodi:docname="Terre.svg"
   inkscape:version="0.92.3 (2405546, 2018-03-11)"><metadata
   id="metadata41"><rdf:RDF><cc:Work
       rdf:about=""><dc:format>image/svg+xml</dc:format><dc:type
         rdf:resource="http://purl.org/dc/dcmitype/StillImage" /></cc:Work></rdf:RDF></metadata><defs
   id="defs39" /><sodipodi:namedview
   pagecolor="#ffffff"
   bordercolor="#666666"
   borderopacity="1"
   objecttolerance="10"
   gridtolerance="10"
   guidetolerance="10"
   inkscape:pageopacity="0"
   inkscape:pageshadow="2"
   inkscape:window-width="867"
   inkscape:window-height="480"
   id="namedview37"
   showgrid="false"
   inkscape:zoom="0.39645207"
   inkscape:cx="405.79801"
   inkscape:cy="-7.3770185"
   inkscape:window-x="0"
   inkscape:window-y="27"
   inkscape:window-maximized="0"
   inkscape:current-layer="Calque_1" />
<rect
   x="0"
   y="0"
   width="283.465"
   height="283.465"
   id="rect2"
   style="fill:#17a2c5;fill-opacity:0.95690002" />
<path
   stroke-miterlimit="10"
   d="m 33.728,49.831 h 138.203 c 0,0 23.095,19.453 0,43.485 h -51.999 c 0,0 -7.152,7.718 0,13.731 h 19.862 c 0,0 10.645,12.587 0,21.74 H 38.623 c 0,0 -11.659,-9.873 0,-20.597 h 21.426 c 0,0 7.572,-4.494 0,-10.302 H 33.728 c 0,0.002 -30.7640003,-22.728 0,-48.057 z"
   id="path4"
   inkscape:connector-curvature="0"
   style="fill:#108e3b;stroke:#108e3b;stroke-miterlimit:10" />
<path
   stroke-miterlimit="10"
   d="m 120.244,158.646 h 138.203 c 0,0 23.094,12.114 0,27.081 h -52 c 0,0 -7.152,4.806 0,8.551 h 19.863 c 0,0 10.645,7.839 0,13.539 H 125.139 c 0,0 -11.658,-6.148 0,-12.827 h 21.426 c 0,0 7.572,-2.798 0,-6.415 h -26.32 c -0.001,0 -30.765,-14.155 -0.001,-29.929 z"
   id="path6"
   inkscape:connector-curvature="0"
   style="fill:#108e3b;stroke:#108e3b;stroke-miterlimit:10" />
<path
   stroke-miterlimit="10"
   d="m 24.953,223.436 h 88.976 c 0,0 25.104,14.368 0,28.735 H 24.905 c 0,0.001 -21.4260003,-14.366 0.048,-28.735 z"
   id="path8"
   inkscape:connector-curvature="0"
   style="fill:#108e3b;stroke:#108e3b;stroke-miterlimit:10" />
<path
   stroke-miterlimit="10"
   d="m 194.375,118.788 h 62.706 c 0,0 17.691,14.368 0,28.735 h -62.739 c 0,0 -15.1,-14.367 0.033,-28.735 z"
   id="path10"
   inkscape:connector-curvature="0"
   style="fill:#108e3b;stroke:#108e3b;stroke-miterlimit:10" />
<path
   stroke-miterlimit="10"
   d="m 156.981,12.589 h 88.976 c 0,0 25.104,8.94 0,17.881 h -89.023 c 0,0 -21.426,-8.941 0.047,-17.881 z"
   id="path12"
   inkscape:connector-curvature="0"
   style="fill:#108e3b;stroke:#108e3b;stroke-miterlimit:10" />
<path
   stroke-miterlimit="10"
   d="m 24.953,15.069 h 88.976 c 0,0 25.104,14.368 0,28.735 H 24.905 c 0,10e-4 -21.4260003,-14.367 0.048,-28.735 z"
   id="path14"
   inkscape:connector-curvature="0"
   style="fill:#108e3b;stroke:#108e3b;stroke-miterlimit:10" />
<path
   stroke-miterlimit="10"
   d="m 171.349,223.436 h 88.976 c 0,0 25.104,18.792 0,37.582 h -89.023 c -0.001,0 -21.427,-18.79 0.047,-37.582 z"
   id="path16"
   inkscape:connector-curvature="0"
   style="fill:#108e3b;stroke:#108e3b;stroke-miterlimit:10" />
<path
   stroke-miterlimit="10"
   d="m 21.2,134.518 h 78.851 c 0,0 22.246,7.214 0,14.428 H 21.157 c 0,0 -18.9880003,-7.214 0.043,-14.428 z"
   id="path18"
   inkscape:connector-curvature="0"
   style="fill:#bc7a3f;stroke:#bc7a3f;stroke-miterlimit:10" />
<path
   stroke-miterlimit="10"
   d="m 126.859,134.518 h 91.522 c 0,0 25.822,17.217 0,34.434 h -91.572 c 0.001,0 -22.039,-17.217 0.05,-34.434 z"
   id="path20"
   inkscape:connector-curvature="0"
   style="fill:#dbe1dd;stroke:#dbe1dd;stroke-miterlimit:10" />
<path
   stroke-miterlimit="10"
   d="m 149.737,49.831 h 46.575 c 0,0 13.141,9.864 0,19.729 h -46.601 c 10e-4,0 -11.215,-9.865 0.026,-19.729 z"
   id="path22"
   inkscape:connector-curvature="0"
   style="fill:#dbe1dd;stroke:#dbe1dd;stroke-miterlimit:10" />
<path
   stroke-miterlimit="10"
   d="m 57.285,8.3760001 h 99.123 c 0,0 27.967,13.1529999 0,26.3049999 H 57.231 c 0,0 -23.869,-13.152 0.054,-26.3049999 z"
   id="path24"
   inkscape:connector-curvature="0"
   style="fill:#dbe1dd;stroke:#dbe1dd;stroke-miterlimit:10" />
<path
   stroke-miterlimit="10"
   d="m 36.428,54.888 h 46.576 c 0,0 13.141,9.865 0,19.73 H 36.403 c 0,0 -11.216,-9.865 0.025,-19.73 z"
   id="path26"
   inkscape:connector-curvature="0"
   style="fill:#ce8c55;stroke:#ce8c55;stroke-miterlimit:10" />
<path
   stroke-miterlimit="10"
   d="m 181.913,237.805 h 78.851 c 0,0 22.246,9.269 0,18.538 H 181.87 c 0,0 -18.988,-9.27 0.043,-18.538 z"
   id="path28"
   inkscape:connector-curvature="0"
   style="fill:#ce8c55;stroke:#ce8c55;stroke-miterlimit:10" />
<path
   stroke-miterlimit="10"
   d="m 168.084,244.632 h 58.577 c 0,0 16.528,13.321 0,26.643 h -58.609 c 0,-10e-4 -14.107,-13.322 0.032,-26.643 z"
   id="path30"
   inkscape:connector-curvature="0"
   style="fill:#dbe1dd;stroke:#dbe1dd;stroke-miterlimit:10" />
<path
   stroke-miterlimit="10"
   d="m 153.967,195.923 h 55.46 c 0,0 15.646,5.343 0,10.687 h -55.489 c -10e-4,-0.001 -13.357,-5.345 0.029,-10.687 z"
   id="path32"
   inkscape:connector-curvature="0"
   style="fill:#bc7a3f;stroke:#bc7a3f;stroke-miterlimit:10" />
<path
   stroke-miterlimit="10"
   d="m 23.869,183.231 c 0,0 -19.0610003,9.519 0,22.21 h 61.172 c 0,0 9.659,6.798 0.525,17.676 H 51.965 c 0,0 -14.331,9.519 0,18.13 h 103.488 c 0,0 14.758,-9.064 0,-17.677 h -46.731 c 0,0 -9.837,-18.129 7.38,-18.583 h 34.434 c 0,0 20.29,-11.331 -2.46,-21.756 z"
   id="path34"
   inkscape:connector-curvature="0"
   style="fill:#dbe1dd;stroke:#dbe1dd;stroke-miterlimit:10" />
</svg>