<?xml version="1.0" encoding="UTF-8" standalone="no"?>
<!-- Generator: Adobe Illustrator 16.0.0, SVG Export Plug-In . SVG Version: 6.00 Build 0)  -->

<svg
   xmlns:dc="http://purl.org/dc/elements/1.1/"
   xmlns:cc="http://creativecommons.org/ns#"
   xmlns:rdf="http://www.w3.org/1999/02/22-rdf-syntax-ns#"
   xmlns:svg="http://www.w3.org/2000/svg"
   xmlns="http://www.w3.org/2000/svg"
   xmlns:sodipodi="http://sodipodi.sourceforge.net/DTD/sodipodi-0.dtd"
   xmlns:inkscape="http://www.inkscape.org/namespaces/inkscape"
   version="1.1"
   id="Calque_1"
   x="0px"
   y="0px"
   width="283.46399"
   height="283.465"
   viewBox="0 0 283.46398 283.46498"
   enable-background="new 0 0 841.89 595.28"
   xml:space="preserve"
   sodipodi:docname="Mercure.svg"
   inkscape:version="0.92.3 (2405546, 2018-03-11)"><metadata
   id="metadata35"><rdf:RDF><cc:Work
       rdf:about=""><dc:format>image/svg+xml</dc:format><dc:type
         rdf:resource="http://purl.org/dc/dcmitype/StillImage" /></cc:Work></rdf:RDF></metadata><defs
   id="defs33" /><sodipodi:namedview
   pagecolor="#ffffff"
   bordercolor="#666666"
   borderopacity="1"
   objecttolerance="10"
   gridtolerance="10"
   guidetolerance="10"
   inkscape:pageopacity="0"
   inkscape:pageshadow="2"
   inkscape:window-width="1920"
   inkscape:window-height="1025"
   id="namedview31"
   showgrid="false"
   inkscape:zoom="1.1213358"
   inkscape:cx="114.67494"
   inkscape:cy="116.10023"
   inkscape:window-x="0"
   inkscape:window-y="27"
   inkscape:window-maximized="1"
   inkscape:current-layer="Calque_1" />
<rect
   x="0"
   y="0"
   width="283.46399"
   height="283.465"
   id="rect2"
   style="fill:#8d9da0" />
<path
   d="m 125.48801,16.000007 h 138.203 c 0,0 23.094,8.502 0,19.006 h -52 c 0,0 -7.152,3.372 0,6.001 h 19.863 c 0,0 10.645,5.5 0,9.501 h -101.171 c 0,0 -11.658,-4.315 0,-9.003 h 21.426 c 0,0 7.572,-1.963 0,-4.501 h -26.32 c -10e-4,0 -30.764003,-9.934 -10e-4,-21.004 z"
   id="path4"
   inkscape:connector-curvature="0"
   style="fill:#60a4cc" />
<path
   d="m 64.760007,163.89701 h -42.761 c 0,0 -13.5759996,-11.922 0,-19.922 h 63.124 c 0,0 12.216,-10.668 -1.358,-14.668 H 9.7830074 c 0,0 -15.612,-15.332 0,-24.666 H 45.077007 c 0,0 4.072,-4 0,-5.334003 h -10.86 c 0,0 -13.575,-6.666 0,-16.667 H 199.83101 c 0,0 16.967,14.667 0,24.001003 h -35.974 c 0,0 -4.752,6 0,8 h 63.123 c 0,0 13.575,12.668 0,19.334 h -43.439 c 0,0 -6.108,2.008 0,5.338 h 77.377 c 0,0 14.254,13.842 0,24.584 h -105.206 c 0,0 -8.824,6.744 0,10.744 h 120.138 c 0,0 6.789,10 0,16.666 h -122.174 c 0,0 -6.11,8 -0.679,11.334 h 67.875 c 0,0 16.968,14.666 1.358,28 H 63.402007 c 0,0 -18.326,-15.332 -1.357,-26.666 h 76.698003 c 0,0 2.037,-10 -2.714,-12 H 34.217007 c 0,0 -14.253,-9.334 0,-20.668 h 33.258 c 0,0.001 5.431,-7.41 -2.715,-7.41 z"
   id="path6"
   inkscape:connector-curvature="0"
   style="fill:#60a4cc" />
<path
   d="m 72.716007,163.34201 h -38.784 c 0,0 -12.312,-11.01 0,-18.397 h 57.252 c 0,0 11.080003,-9.85 -1.231,-13.544 h -67.102 c 0,0 -14.1599996,-14.158 0,-22.777 h 32.012 c 0,0 3.693,-3.694 0,-4.925 h -9.85 c 0,0 -12.312,-6.156003 0,-15.391003 H 195.22101 c 0,0 15.391,13.544003 0,22.162003 h -32.626 c 0,0 -4.31,5.54 0,7.388 h 57.251 c 0,0 12.312,11.697 0,17.853 h -39.4 c 0,0 -5.539,1.854 0,4.93 h 70.18 c 0,0 12.93,12.781 0,22.702 h -95.418 c 0,0 -8.003,6.227 0,9.92 h 108.963 c 0,0 6.156,9.234 0,15.391 h -110.81 c 0,0 -5.541,7.388 -0.615,10.466 h 61.56 c 0,0 15.391,13.544 1.23,25.855 H 71.484007 c 0,0 -16.621,-14.158 -1.23,-24.624 h 69.563003 c 0,0 1.849,-9.234 -2.462,-11.081 H 45.013007 c 0,0 -12.928,-8.619 0,-19.084 h 30.164 c 0,-0.001 4.926,-6.844 -2.461,-6.844 z"
   id="path8"
   inkscape:connector-curvature="0"
   style="fill:#22409a" />
<path
   d="M 20.880007,249.99901 H 140.08001 c 0,0 33.632,10.667 0,21.334 H 20.815007 c 0,0 -28.7029996,-10.667 0.065,-21.334 z"
   id="path10"
   inkscape:connector-curvature="0"
   style="fill:#60a4cc" />
<path
   d="m 87.271007,168.00001 h 53.241003 c 0,0 15.022,8.762 0,17.523 H 87.242007 c 0,0 -12.821,-8.761 0.029,-17.523 z"
   id="path12"
   inkscape:connector-curvature="0"
   style="fill:#ffffff" />
<path
   d="m 33.116007,243.14301 h 82.837003 c 0,0 23.372,8.762 0,17.523 H 33.071007 c 0,0 -19.947,-8.762 0.045,-17.523 z"
   id="path14"
   inkscape:connector-curvature="0"
   style="fill:#ffffff" />
<path
   d="m 24.191007,50.509007 h 71.062 c 0,0 20.049003,8.762 0,17.523 h -71.101 c 0,0 -17.1109996,-8.761 0.039,-17.523 z"
   id="path16"
   inkscape:connector-curvature="0"
   style="fill:#edbe43" />
<path
   d="m 21.634007,38.414007 h 53.242 c 0,0 15.021,8.762 0,17.523 h -53.271 c 0,0 -12.8199996,-8.762 0.029,-17.523 z"
   id="path18"
   inkscape:connector-curvature="0"
   style="fill:#f5cd6b" />
<path
   d="m 182.66401,216.21201 h 82.562 c 0,0 23.294,8.762 0,17.523 h -82.607 c -0.001,0 -19.882,-8.761 0.045,-17.523 z"
   id="path20"
   inkscape:connector-curvature="0"
   style="fill:#f5cd6b" />
<path
   d="m 168.45601,207.45001 h 40.663 c 0,0 11.472,8.762 0,17.523 h -40.686 c 0.001,0.001 -9.79,-8.761 0.023,-17.523 z"
   id="path22"
   inkscape:connector-curvature="0"
   style="fill:#edbe43" />
<path
   d="m 148.38901,41.747007 h 71.062 c 0,0 20.049,8.762 0,17.523 h -71.1 c -0.001,10e-4 -17.113,-8.761 0.038,-17.523 z"
   id="path24"
   inkscape:connector-curvature="0"
   style="fill:#e79dcd" />
<path
   d="m 167.72201,133.97601 h 71.062 c 0,0 20.049,9.891 0,19.781 h -71.1 c -0.001,0 -17.113,-9.891 0.038,-19.781 z"
   id="path26"
   inkscape:connector-curvature="0"
   style="fill:#e79dcd" />
<path
   d="m 181.42901,124.08501 h 71.062 c 0,0 20.049,9.891 0,19.781 h -71.101 c 0,0 -17.112,-9.89 0.039,-19.781 z"
   id="path28"
   inkscape:connector-curvature="0"
   style="fill:#dd6cb3" />
</svg>