<?xml version="1.0" encoding="UTF-8" standalone="no"?>
<!-- Created with Inkscape (http://www.inkscape.org/) -->

<svg
   xmlns:dc="http://purl.org/dc/elements/1.1/"
   xmlns:cc="http://creativecommons.org/ns#"
   xmlns:rdf="http://www.w3.org/1999/02/22-rdf-syntax-ns#"
   xmlns:svg="http://www.w3.org/2000/svg"
   xmlns="http://www.w3.org/2000/svg"
   xmlns:sodipodi="http://sodipodi.sourceforge.net/DTD/sodipodi-0.dtd"
   xmlns:inkscape="http://www.inkscape.org/namespaces/inkscape"
   width="26.216425mm"
   height="25.506321mm"
   viewBox="0 0 26.216425 25.506321"
   version="1.1"
   id="svg3047"
   sodipodi:docname="moon.svg"
   inkscape:version="0.92.3 (2405546, 2018-03-11)">
  <defs
     id="defs3041" />
  <sodipodi:namedview
     id="base"
     pagecolor="#ffffff"
     bordercolor="#666666"
     borderopacity="1.0"
     inkscape:pageopacity="0.0"
     inkscape:pageshadow="2"
     inkscape:zoom="5.6"
     inkscape:cx="19.31296"
     inkscape:cy="57.918514"
     inkscape:document-units="mm"
     inkscape:current-layer="layer1"
     showgrid="false"
     inkscape:window-width="1920"
     inkscape:window-height="1025"
     inkscape:window-x="0"
     inkscape:window-y="27"
     inkscape:window-maximized="1" />
  <metadata
     id="metadata3044">
    <rdf:RDF>
      <cc:Work
         rdf:about="">
        <dc:format>image/svg+xml</dc:format>
        <dc:type
           rdf:resource="http://purl.org/dc/dcmitype/StillImage" />
        <dc:title />
      </cc:Work>
    </rdf:RDF>
  </metadata>
  <g
     inkscape:label="Calque 1"
     inkscape:groupmode="layer"
     id="layer1"
     transform="translate(-5.790597,-11.348038)">
    <ellipse
       style="opacity:1;fill:#c8b7b7;fill-opacity:1;stroke:#cd0047;stroke-width:0;stroke-miterlimit:4;stroke-dasharray:none;stroke-opacity:1"
       id="path5102"
       cx="15.149824"
       cy="16.732714"
       rx="1.2047991"
       ry="0.94494045" />
    <rect
       style="opacity:1;fill:#5f5f5f;fill-opacity:1;stroke:#00d0ff;stroke-width:0;stroke-miterlimit:4;stroke-dasharray:none;stroke-opacity:1"
       id="rect832"
       width="26.36384"
       height="25.655134"
       x="5.8378439"
       y="11.388213" />
    <ellipse
       style="opacity:1;fill:#333333;fill-opacity:1;stroke:#cd0047;stroke-width:0;stroke-miterlimit:4;stroke-dasharray:none;stroke-opacity:1"
       id="path5140"
       cx="8.9604597"
       cy="27.717648"
       rx="1.2520461"
       ry="1.2047991" />
    <ellipse
       style="opacity:1;fill:#333333;fill-opacity:1;stroke:#cd0047;stroke-width:0;stroke-miterlimit:4;stroke-dasharray:none;stroke-opacity:1"
       id="path5142"
       cx="10.992096"
       cy="14.724723"
       rx="1.063058"
       ry="0.96856403" />
    <ellipse
       style="opacity:1;fill:#333333;fill-opacity:1;stroke:#cd0047;stroke-width:0;stroke-miterlimit:4;stroke-dasharray:none;stroke-opacity:1"
       id="path5144"
       cx="24.150391"
       cy="14.181376"
       rx="0.8504464"
       ry="0.70870537" />
    <ellipse
       style="opacity:1;fill:#333333;fill-opacity:1;stroke:#cd0047;stroke-width:0;stroke-miterlimit:4;stroke-dasharray:none;stroke-opacity:1"
       id="path5146"
       cx="28.378986"
       cy="20.087252"
       rx="0.87406993"
       ry="0.80319941" />
    <circle
       style="opacity:1;fill:#333333;fill-opacity:1;stroke:#cd0047;stroke-width:0;stroke-miterlimit:4;stroke-dasharray:none;stroke-opacity:1"
       id="path5148"
       cx="25.189819"
       cy="24.103258"
       r="0.47247022" />
    <circle
       style="opacity:1;fill:#333333;fill-opacity:1;stroke:#cd0047;stroke-width:0;stroke-miterlimit:4;stroke-dasharray:none;stroke-opacity:1"
       id="path5152"
       cx="26.867096"
       cy="29.41852"
       r="0.40159971" />
    <path
       style="display:inline;opacity:0.594;fill:#323232;fill-opacity:1;stroke:#000000;stroke-width:0;stroke-linecap:butt;stroke-linejoin:miter;stroke-miterlimit:4;stroke-dasharray:none;stroke-opacity:1"
       d="m 19.50526,17.963855 -8.654712,1.235392 c -1.4931289,1.545189 -1.053301,2.831544 0.393387,3.983057 l 2.700499,-0.436647 c 0.434215,0.530579 0.236309,0.687972 0.188512,0.990448 l -1.872733,0.319483 c -1.218191,1.672625 -0.225129,2.00433 0.327832,2.59858 2.364349,-0.311661 2.605062,-0.327258 3.442214,-0.425998 0.268919,0.271291 0.460331,0.560465 0.237767,0.94509 l -1.037148,0.268026 c -0.990918,0.860522 -0.465102,1.608062 0.235732,1.942719 0.568615,-0.09297 2.988905,-0.355006 5.690401,-0.642716 0.554607,-0.566102 1.197657,-1.510472 -0.262541,-2.076582 l -3.405322,0.381885 c -0.287013,-0.287005 -0.527414,-0.57401 -0.213123,-0.861023 0.480606,-0.106304 0.773255,-0.17847 1.639018,-0.354748 1.397691,-0.946774 1.377187,-2.10989 -0.622882,-2.683767 0,0 -2.596633,0.395822 -2.786424,0.312146 -0.18979,-0.08367 -0.518776,-0.508992 -0.163908,-0.926541 0.354868,-0.41755 5.146943,-0.820043 5.146943,-0.820043 0.993608,-1.378612 1.065151,-2.801666 -0.983512,-3.748761 z"
       id="path5072"
       inkscape:connector-curvature="0"
       sodipodi:nodetypes="ccccccccccccccccczzccc" />
    <ellipse
       ry="1.3701633"
       rx="1.5119044"
       cy="33.883385"
       cx="28.827833"
       id="ellipse834"
       style="opacity:1;fill:#333333;fill-opacity:1;stroke:#cd0047;stroke-width:0;stroke-miterlimit:4;stroke-dasharray:none;stroke-opacity:1" />
    <ellipse
       ry="0.80319941"
       rx="0.87406993"
       cy="14.842832"
       cx="16.425489"
       id="ellipse836"
       style="opacity:1;fill:#333333;fill-opacity:1;stroke:#cd0047;stroke-width:0;stroke-miterlimit:4;stroke-dasharray:none;stroke-opacity:1" />
    <ellipse
       style="opacity:1;fill:#333333;fill-opacity:1;stroke:#cd0047;stroke-width:0;stroke-miterlimit:4;stroke-dasharray:none;stroke-opacity:1"
       id="ellipse838"
       cx="17.016077"
       cy="33.269173"
       rx="1.5119044"
       ry="1.3701633" />
  </g>
</svg>
