<?xml version="1.0" encoding="UTF-8" standalone="no"?>
<!-- Generator: Adobe Illustrator 16.0.0, SVG Export Plug-In . SVG Version: 6.00 Build 0)  -->

<svg
   xmlns:dc="http://purl.org/dc/elements/1.1/"
   xmlns:cc="http://creativecommons.org/ns#"
   xmlns:rdf="http://www.w3.org/1999/02/22-rdf-syntax-ns#"
   xmlns:svg="http://www.w3.org/2000/svg"
   xmlns="http://www.w3.org/2000/svg"
   xmlns:sodipodi="http://sodipodi.sourceforge.net/DTD/sodipodi-0.dtd"
   xmlns:inkscape="http://www.inkscape.org/namespaces/inkscape"
   version="1.1"
   id="Calque_1"
   x="0px"
   y="0px"
   width="283.46399"
   height="283.465"
   viewBox="0 0 283.46398 283.46498"
   enable-background="new 0 0 841.89 595.28"
   xml:space="preserve"
   sodipodi:docname="Soleil.svg"
   inkscape:version="0.92.3 (2405546, 2018-03-11)"><metadata
   id="metadata33"><rdf:RDF><cc:Work
       rdf:about=""><dc:format>image/svg+xml</dc:format><dc:type
         rdf:resource="http://purl.org/dc/dcmitype/StillImage" /></cc:Work></rdf:RDF></metadata><defs
   id="defs31" /><sodipodi:namedview
   pagecolor="#ffffff"
   bordercolor="#666666"
   borderopacity="1"
   objecttolerance="10"
   gridtolerance="10"
   guidetolerance="10"
   inkscape:pageopacity="0"
   inkscape:pageshadow="2"
   inkscape:window-width="867"
   inkscape:window-height="480"
   id="namedview29"
   showgrid="false"
   inkscape:zoom="0.39645207"
   inkscape:cx="378.60701"
   inkscape:cy="9.0669823"
   inkscape:window-x="0"
   inkscape:window-y="27"
   inkscape:window-maximized="0"
   inkscape:current-layer="Calque_1" />
<rect
   x="0"
   y="0"
   width="283.46399"
   height="283.465"
   id="rect2"
   style="fill:#f96611" />
<path
   d="M 44.087999,45.285999 H 172.822 c 0,0 11.105,4.525 0,10.443 h -21.204 c 0,0 -7.572,6.266 0,7.832 H 222.8 c 0,0 18.175,12.01 0,24.541 h -71.182 c 0,0 -10.602,9.921 0.506,14.099001 h 96.928 c 0,0 13.126,9.921 0,17.23 H 191.5 c 0,0 -8.077,4.699 -0.505,9.399 h 85.317 c 0,0 12.117,8.263 0,20.057 h -46.444 c 0,0 -6.058,6.573 0,9.184 h 39.376 c 0,0 8.078,7.311 0,14.098 H 160.705 c 0,0 -8.077,7.833 -0.505,15.143 h 73.202 c 0,0 12.115,13.576 0,19.32 H 25.409999 c 0,0 -14.135,-9.399 0,-20.887 h 47.455 c 0,0 9.592,-8.876 -2.02,-11.487 h -51.718 c 0,0 -14.8650003,-10.965 0,-17.23 h 37.582 c 0,0 12.116,-7.833 -1.01,-13.055 h -38.367 c 0,0 -28.271,-21.93 0,-46.472001 H 100.125 c 0,0 10.096,-6.266 0,-10.965 H 54.689999 c 0,0 -8.583,-6.788 0,-13.576 h 43.415 v -12.009 h -53.006 c 0,0 -15.651,-4.7 -1.011,-15.665 z"
   id="path4"
   inkscape:connector-curvature="0"
   style="fill:#f18e27" />
<path
   stroke-miterlimit="10"
   d="M 45.582999,47.285999 H 160.52 c 0,0 9.916,4.406 0,10.171 h -18.93 c 0,0 -6.762,6.103 0,7.627 h 63.553 c 0,0 16.227,11.695 0,23.9 H 141.59 c 0,0 -9.467,9.662 0.451,13.730001 h 86.54 c 0,0 11.719,9.663 0,16.781 h -51.384 c 0,0 -7.211,4.578 -0.45,9.153 h 76.173 c 0,0 10.818,8.048 0,19.534 h -41.468 c 0,0 -5.409,6.4 0,8.944 h 35.157 c 0,0 7.212,7.117 0,13.729 h -96.908 c 0,0 -7.211,7.627 -0.451,14.747 h 65.356 c 0,0 10.818,13.223 0,18.815 H 28.905999 c 0,0 -12.62,-9.154 0,-20.341 h 42.369 c 0,0 8.563,-8.646 -1.803,-11.187 h -46.175 c 0,0 -13.272,-10.681 0,-16.781 h 33.555 c 0,0 10.817,-7.629 -0.901,-12.715 h -34.256 c 0,0 -25.2410003,-21.357 0,-45.258001 h 73.92 c 0,0 9.014001,-6.102 0,-10.678 h -40.566 c 0,0 -7.663,-6.612 0,-13.223 h 38.763 v -11.692 h -47.327 c 0,0 -13.972,-4.578 -0.902,-15.256 z"
   id="path6"
   inkscape:connector-curvature="0"
   style="fill:#fbcc30;stroke:#fbcc30;stroke-miterlimit:10" />
<path
   d="m 156.199,220.286 h 111.5 c 0,0 15,12 0,24 h -111.5 c 0,0 -15.5,-10.5 0,-24 z"
   id="path8"
   inkscape:connector-curvature="0"
   style="fill:#f18e27" />
<path
   stroke-miterlimit="10"
   d="m 21.209999,232.286 h 67.487 c 0,0 9.08,5.75 0,11.5 h -67.487 c 0,0 -9.381,-5.031 0,-11.5 z"
   id="path10"
   inkscape:connector-curvature="0"
   style="fill:#fbcc30;stroke:#fbcc30;stroke-miterlimit:10" />
<path
   d="M 19.561999,22.425999 H 134.839 c 0,0 15.51,7.5 0,15 H 19.561999 c 0,0 -16.0250003,-6.563 0,-15 z"
   id="path12"
   inkscape:connector-curvature="0"
   style="fill:#f8b380" />
<path
   d="M 59.056999,112.536 H 126.543 c 0,0 9.08,5.75 0,11.5 H 59.056999 c 0,0 -9.382,-5.031 0,-11.5 z"
   id="path14"
   inkscape:connector-curvature="0"
   style="fill:#f96611" />
<path
   d="m 159.382,156.742 h 40.378 c 0,0 5.434,3.75 0,7.5 h -40.378 c 0,0 -5.614,-3.281 0,-7.5 z"
   id="path16"
   inkscape:connector-curvature="0"
   style="fill:#f18e27" />
<path
   d="m 108.885,256.786 h 88.027 c 0,0 11.842,7.5 0,15 h -88.027 c 0,0 -12.237001,-6.563 0,-15 z"
   id="path18"
   inkscape:connector-curvature="0"
   style="fill:#f8b380" />
<path
   stroke-miterlimit="10"
   d="m 128.3,13.978999 h 49.119 c 0,0 6.608,7.973 0,15.947 H 128.3 c 0,0 -6.828,-6.977 0,-15.947 z"
   id="path20"
   inkscape:connector-curvature="0"
   style="fill:#fbcc30;stroke:#fbcc30;stroke-miterlimit:10" />
<path
   d="M 75.813999,147.367 H 118.225 c 0,0 5.707,3.625 0,7.25 H 75.813999 c 0,0 -5.896,-3.172 0,-7.25 z"
   id="path22"
   inkscape:connector-curvature="0"
   style="fill:#ffffff" />
<path
   d="m 147.623,21.782999 h 30.107 c 0,0 4.052,1.982 0,3.965 h -30.107 c 0,0 -4.186,-1.735 0,-3.965 z"
   id="path24"
   inkscape:connector-curvature="0"
   style="fill:#ffffff" />
<path
   d="m 195.997,232.838 68.349,-0.552 c 0,0 9.226,3.551 0.059,7.25 l -68.349,0.552 c 0,0 -9.527,-3.095 -0.059,-7.25 z"
   id="path26"
   inkscape:connector-curvature="0"
   style="fill:#ffffff" />
</svg>