<?xml version="1.0" encoding="UTF-8" standalone="no"?>
<!-- Generator: Adobe Illustrator 16.0.0, SVG Export Plug-In . SVG Version: 6.00 Build 0)  -->

<svg
   xmlns:dc="http://purl.org/dc/elements/1.1/"
   xmlns:cc="http://creativecommons.org/ns#"
   xmlns:rdf="http://www.w3.org/1999/02/22-rdf-syntax-ns#"
   xmlns:svg="http://www.w3.org/2000/svg"
   xmlns="http://www.w3.org/2000/svg"
   xmlns:sodipodi="http://sodipodi.sourceforge.net/DTD/sodipodi-0.dtd"
   xmlns:inkscape="http://www.inkscape.org/namespaces/inkscape"
   version="1.1"
   id="Calque_1"
   x="0px"
   y="0px"
   width="283.46399"
   height="283.465"
   viewBox="0 0 283.46398 283.46498"
   enable-background="new 0 0 841.89 595.28"
   xml:space="preserve"
   sodipodi:docname="Vénus. .svg"
   inkscape:version="0.92.3 (2405546, 2018-03-11)"><metadata
   id="metadata23"><rdf:RDF><cc:Work
       rdf:about=""><dc:format>image/svg+xml</dc:format><dc:type
         rdf:resource="http://purl.org/dc/dcmitype/StillImage" /></cc:Work></rdf:RDF></metadata><defs
   id="defs21" /><sodipodi:namedview
   pagecolor="#ffffff"
   bordercolor="#666666"
   borderopacity="1"
   objecttolerance="10"
   gridtolerance="10"
   guidetolerance="10"
   inkscape:pageopacity="0"
   inkscape:pageshadow="2"
   inkscape:window-width="867"
   inkscape:window-height="480"
   id="namedview19"
   showgrid="false"
   inkscape:zoom="0.39645207"
   inkscape:cx="403.93801"
   inkscape:cy="-4.5710182"
   inkscape:window-x="0"
   inkscape:window-y="27"
   inkscape:window-maximized="0"
   inkscape:current-layer="Calque_1" />
<rect
   x="0"
   y="0"
   width="283.46399"
   height="283.465"
   id="rect2"
   style="fill:#f7e04a" />
<path
   d="M 64.062,88.862 H 25.277 c 0,0 -12.312,-11.01 0,-18.397 h 57.252 c 0,0 11.08,-9.85 -1.23,-13.544 H 14.197 c 0,0 -14.15999997,-14.158 0,-22.777 h 32.012 c 0,0 3.693,-3.694 0,-4.925 h -9.85 c 0,0 -12.312,-6.156 0,-15.391 h 150.208 c 0,0 15.391,13.544 0,22.162 h -32.626 c 0,0 -4.311,5.54 0,7.388 h 57.251 c 0,0 12.312,11.697 0,17.853 h -39.4 c 0,0 -5.539,1.854 0,4.93 h 70.18 c 0,0 12.93,12.781 0,22.702 h -95.419 c 0,0 -8.002,6.227 0,9.92 h 108.964 c 0,0 6.156,9.234 0,15.391 h -110.81 c 0,0 -5.541,7.388 -0.615,10.466 h 61.56 c 0,0 15.391,13.544 1.23,25.855 H 62.829 c 0,0 -16.621,-14.158 -1.23,-24.624 h 69.562 c 0,0 1.85,-9.234 -2.461,-11.081 H 36.359 c 0,0 -12.928,-8.619 0,-19.084 h 30.164 c 0,-0.001 4.926,-6.844 -2.461,-6.844 z"
   id="path4"
   inkscape:connector-curvature="0"
   style="fill:#efb01b" />
<path
   d="m 166.146,8.9809999 h 71.062 c 0,0 20.049,8.7620001 0,17.5230001 h -71.102 c 0.001,0 -17.111,-8.761 0.04,-17.5230001 z"
   id="path6"
   inkscape:connector-curvature="0"
   style="fill:#87490b" />
<path
   d="m 60.001,26.504 h 35.815 c 0,0 10.105,6.412 0,12.824 H 59.981 c 0,0 -8.624,-6.411 0.02,-12.824 z"
   id="path8"
   inkscape:connector-curvature="0"
   style="fill:#ffffff" />
<path
   d="m 51.271,193.418 h 167.752 c 0,0 28.03,10.319 0,23.069 h -63.119 c 0,0 -8.682,4.093 0,7.285 h 24.111 c 0,0 12.92,6.676 0,11.532 H 57.212 c 0,0 -14.151,-5.238 0,-10.928 h 26.007 c 0,0 9.191,-2.383 0,-5.465 H 51.271 c 0,0.002 -37.341,-12.055 0,-25.493 z"
   id="path10"
   inkscape:connector-curvature="0"
   style="fill:#b76923" />
<path
   d="m 21.576,86.679 h 138.203 c 0,0 23.094,8.502 0,19.006 h -52 c 0,0 -7.152,3.372 0,6.002 h 19.863 c 0,0 10.645,5.5 0,9.501 H 26.471 c 0,0 -11.658,-4.315 0,-9.003 h 21.426 c 0,0 7.572,-1.963 0,-4.502 h -26.32 c -0.001,0 -30.765,-9.934 -0.001,-21.004 z"
   id="path12"
   inkscape:connector-curvature="0"
   style="fill:#87490b" />
<path
   d="m 154.606,226.004 h -25.718 c 0,0 -8.166,-7.844 0,-13.106 h 37.966 c 0,0 7.349,-7.019 -0.816,-9.65 h -44.5 c 0,0 -9.39,-10.087 0,-16.229 h 21.229 c 0,0 2.449,-2.631 0,-3.509 h -6.531 c 0,0 -8.165,-4.386 0,-10.966 h 99.613 c 0,0 10.205,9.65 0,15.791 h -21.637 c 0,0 -2.859,3.947 0,5.264 h 37.967 c 0,0 8.166,8.334 0,12.719 H 226.05 c 0,0 -3.674,1.322 0,3.513 h 46.541 c 0,0 8.574,9.106 0,16.174 h -63.278 c 0,0 -5.308,4.437 0,7.069 h 72.261 c 0,0 4.084,6.577 0,10.964 h -73.486 c 0,0 -3.674,5.264 -0.408,7.455 h 40.826 c 0,0 10.205,9.65 0.816,18.422 h -95.533 c 0,0 -11.021,-10.086 -0.816,-17.543 h 46.135 c 0,0 1.225,-6.58 -1.633,-7.895 h -61.238 c 0,0 -8.574,-6.141 0,-13.598 h 20.003 c -0.001,0 3.265,-4.875 -1.634,-4.875 z"
   id="path14"
   inkscape:connector-curvature="0"
   style="fill:#87490b" />
<path
   d="m 109.092,231.485 h 82.837 c 0,0 23.371,8.762 0,17.523 h -82.882 c 0,0 -19.947,-8.761 0.045,-17.523 z"
   id="path16"
   inkscape:connector-curvature="0"
   style="fill:#ffffff" />
</svg>