<?xml version="1.0" encoding="UTF-8" standalone="no"?>
<!-- Created with Inkscape (http://www.inkscape.org/) -->

<svg
   xmlns:dc="http://purl.org/dc/elements/1.1/"
   xmlns:cc="http://creativecommons.org/ns#"
   xmlns:rdf="http://www.w3.org/1999/02/22-rdf-syntax-ns#"
   xmlns:svg="http://www.w3.org/2000/svg"
   xmlns="http://www.w3.org/2000/svg"
   xmlns:sodipodi="http://sodipodi.sourceforge.net/DTD/sodipodi-0.dtd"
   xmlns:inkscape="http://www.inkscape.org/namespaces/inkscape"
   width="26.216425mm"
   height="27.366356mm"
   viewBox="0 0 26.216425 27.366356"
   version="1.1"
   id="svg2367"
   inkscape:version="0.92.3 (2405546, 2018-03-11)"
   sodipodi:docname="logo.svg">
  <defs
     id="defs2361" />
  <sodipodi:namedview
     id="base"
     pagecolor="#ffffff"
     bordercolor="#666666"
     borderopacity="1.0"
     inkscape:pageopacity="0.0"
     inkscape:pageshadow="2"
     inkscape:zoom="0.35"
     inkscape:cx="-219.98848"
     inkscape:cy="-96.023329"
     inkscape:document-units="mm"
     inkscape:current-layer="layer1"
     showgrid="false"
     inkscape:snap-nodes="false"
     showguides="false"
     inkscape:window-width="1920"
     inkscape:window-height="1025"
     inkscape:window-x="0"
     inkscape:window-y="27"
     inkscape:window-maximized="1" />
  <metadata
     id="metadata2364">
    <rdf:RDF>
      <cc:Work
         rdf:about="">
        <dc:format>image/svg+xml</dc:format>
        <dc:type
           rdf:resource="http://purl.org/dc/dcmitype/StillImage" />
        <dc:title></dc:title>
      </cc:Work>
    </rdf:RDF>
  </metadata>
  <g
     inkscape:groupmode="layer"
     id="layer9"
     inkscape:label="Calque 2"
     transform="translate(-87.700945,-190.27391)">
    <g
       transform="translate(81.910348,178.92587)"
       id="layer1-3"
       inkscape:label="Calque 1">
      <ellipse
         ry="0.94494045"
         rx="1.2047991"
         cy="16.732714"
         cx="15.149824"
         id="path5102"
         style="opacity:1;fill:#c8b7b7;fill-opacity:1;stroke:#cd0047;stroke-width:0;stroke-miterlimit:4;stroke-dasharray:none;stroke-opacity:1" />
      <ellipse
         ry="10.289877"
         rx="10.423512"
         cy="24.027102"
         cx="18.78517"
         id="path5043"
         style="display:inline;opacity:1;fill:#5f5f5f;fill-opacity:1;stroke:#cd0047;stroke-width:0;stroke-miterlimit:4;stroke-dasharray:none;stroke-opacity:1" />
      <ellipse
         ry="1.2047991"
         rx="1.2520461"
         cy="24.788332"
         cx="11.464552"
         id="path5140"
         style="opacity:1;fill:#333333;fill-opacity:1;stroke:#cd0047;stroke-width:0;stroke-miterlimit:4;stroke-dasharray:none;stroke-opacity:1" />
      <ellipse
         ry="0.96856403"
         rx="1.063058"
         cy="16.425615"
         cx="15.811293"
         id="path5142"
         style="opacity:1;fill:#333333;fill-opacity:1;stroke:#cd0047;stroke-width:0;stroke-miterlimit:4;stroke-dasharray:none;stroke-opacity:1" />
      <ellipse
         ry="0.70870537"
         rx="0.8504464"
         cy="15.976763"
         cx="21.835287"
         id="path5144"
         style="opacity:1;fill:#333333;fill-opacity:1;stroke:#cd0047;stroke-width:0;stroke-miterlimit:4;stroke-dasharray:none;stroke-opacity:1" />
      <ellipse
         ry="0.80319941"
         rx="0.87406993"
         cy="22.071627"
         cx="26.11113"
         id="path5146"
         style="opacity:1;fill:#333333;fill-opacity:1;stroke:#cd0047;stroke-width:0;stroke-miterlimit:4;stroke-dasharray:none;stroke-opacity:1" />
      <circle
         r="0.47247022"
         cy="24.103258"
         cx="25.189819"
         id="path5148"
         style="opacity:1;fill:#333333;fill-opacity:1;stroke:#cd0047;stroke-width:0;stroke-miterlimit:4;stroke-dasharray:none;stroke-opacity:1" />
      <circle
         r="0.40159971"
         cy="29.41852"
         cx="26.867096"
         id="path5152"
         style="opacity:1;fill:#333333;fill-opacity:1;stroke:#cd0047;stroke-width:0;stroke-miterlimit:4;stroke-dasharray:none;stroke-opacity:1" />
      <path
         sodipodi:nodetypes="ccssssc"
         inkscape:connector-curvature="0"
         id="path5045-7"
         d="m 19.127399,13.718142 c -4.97361,11.32116 -5.10171,17.1178 0.13777,20.65809 -3.29595,-0.0937 -5.73183,-1.17339 -7.48536,-2.71954 -1.33435,-1.17654 -2.3494099,-2.83084 -2.8854299,-4.40512 -0.71415,-2.09746 -0.65118,-4.19935 -0.0692,-6.2584 0.60069,-2.12525 2.2028599,-4.20859 4.2620599,-5.59301 1.70989,-1.14958 3.83078,-1.75564 6.04017,-1.68202 z"
         style="display:inline;opacity:0.39899998;fill:#333333;stroke:#000000;stroke-width:0;stroke-linecap:butt;stroke-linejoin:miter;stroke-miterlimit:4;stroke-dasharray:none;stroke-opacity:1" />
      <path
         sodipodi:nodetypes="ccccccccccccccccczzccc"
         inkscape:connector-curvature="0"
         id="path5072"
         d="m 23.112146,17.207902 -11.101657,1.57783 c -1.91528,1.9735 -1.3511,3.61642 0.50461,5.08712 l 3.46401,-0.55768 c 0.55698,0.67765 0.30312,0.87867 0.24181,1.26499 l -2.40221,0.40804 c -1.56261,2.13626 -0.28878,2.55991 0.42052,3.31888 3.03282,-0.39805 3.34159,-0.41797 4.41543,-0.54408 0.34495,0.34649 0.59048,0.71582 0.30499,1.20706 l -1.33038,0.34232 c -1.27108,1.09905 -0.5966,2.0538 0.30238,2.48122 0.72938,-0.11874 3.833958,-0.45341 7.299247,-0.82087 0.71141,-0.72302 1.53627,-1.92916 -0.33677,-2.65219 l -4.368107,0.48774 c -0.36816,-0.36656 -0.67653,-0.73312 -0.27338,-1.09969 0.616488,-0.13577 0.991878,-0.22794 2.102418,-0.45308 1.792859,-1.20921 1.766559,-2.69473 -0.79899,-3.42768 0,0 -3.330778,0.50554 -3.574228,0.39867 -0.24345,-0.10686 -0.66545,-0.65008 -0.21025,-1.18337 0.4552,-0.53329 6.602137,-1.04735 6.602137,-1.04735 1.27453,-1.76075 1.3663,-3.57826 -1.26158,-4.78788 z"
         style="display:inline;opacity:0.594;fill:#323232;fill-opacity:1;stroke:#000000;stroke-width:0;stroke-linecap:butt;stroke-linejoin:miter;stroke-miterlimit:4;stroke-dasharray:none;stroke-opacity:1" />
      <ellipse
         ry="12.75316"
         rx="13.108212"
         cy="24.101198"
         cx="18.898809"
         id="ellipse12341"
         style="display:inline;opacity:0.131;fill:#808080;fill-opacity:0.95686275;stroke-width:0.1121701" />
    </g>
  </g>
  <g
     inkscape:label="Calque 1"
     inkscape:groupmode="layer"
     id="layer1"
     transform="translate(-87.700945,-190.27391)">
    <path
       style="opacity:1;fill:#f2f2f2;fill-opacity:1;stroke:#b25959;stroke-width:0;stroke-linecap:butt;stroke-linejoin:miter;stroke-miterlimit:4;stroke-dasharray:none;stroke-opacity:1"
       d="m 100.33782,195.70542 c -0.761446,0.0325 -1.486472,1.60165 -1.392165,5.14181 -0.985587,0.18709 -0.596699,1.52032 -0.377237,2.48409 l 0.413411,-1.23301 h 0.700732 l -0.125574,0.90176 c 0.521193,-3e-5 1.628703,-1.6e-4 1.563213,0 l -0.12557,-0.92036 0.75499,0.0186 0.44907,1.25109 c 0.40493,-1.2105 0.59783,-1.88913 -0.26975,-2.46547 0.18158,-3.27837 -0.72815,-5.2153 -1.59112,-5.17851 z m 0.12144,1.61386 a 0.63783484,0.61421131 0 0 1 0.63769,0.61391 0.63783484,0.61421131 0 0 1 -0.63769,0.61444 0.63783484,0.61421131 0 0 1 -0.637689,-0.61444 0.63783484,0.61421131 0 0 1 0.637689,-0.61391 z"
       id="path2983"
       inkscape:connector-curvature="0" />
    <path
       style="fill:#ff9955;stroke:#000000;stroke-width:0.146;stroke-linecap:butt;stroke-linejoin:miter;stroke-miterlimit:4;stroke-dasharray:none;stroke-opacity:1"
       d="m 99.62579,203.03308 c -0.227325,4.73743 -0.180998,9.60283 0.65374,14.59016 1.15751,-4.8268 1.25805,-9.69426 0.78094,-14.58393 z"
       id="path3167"
       inkscape:connector-curvature="0"
       sodipodi:nodetypes="cccc" />
    <path
       sodipodi:nodetypes="cccc"
       inkscape:connector-curvature="0"
       id="path3169"
       d="m 99.697425,203.03308 c -0.263057,5.21172 -0.216182,4.79799 0.628355,9.01501 1.03758,-4.04822 1.14219,-3.10036 0.65768,-9.00878 z"
       style="fill:#ff7f2a;stroke:#000000;stroke-width:0;stroke-linecap:butt;stroke-linejoin:miter;stroke-miterlimit:4;stroke-dasharray:none;stroke-opacity:1" />
    <path
       style="fill:#c83737;stroke:#000000;stroke-width:0;stroke-linecap:butt;stroke-linejoin:miter;stroke-miterlimit:4;stroke-dasharray:none;stroke-opacity:1"
       d="m 99.688614,203.02323 1.294586,0.008 c 0.377,3.0148 -0.3109,3.49281 -0.56795,4.76909 -0.441821,-1.39079 -0.933507,-2.60973 -0.726636,-4.77709 z"
       id="path3171"
       inkscape:connector-curvature="0"
       sodipodi:nodetypes="cccc" />
    <flowRoot
       xml:space="preserve"
       id="flowRoot3147"
       style="font-style:normal;font-weight:normal;font-size:40px;line-height:0.69999999;font-family:sans-serif;text-align:center;letter-spacing:0px;word-spacing:0px;text-anchor:middle;fill:#ffffff;fill-opacity:1;stroke:none"
       transform="matrix(0.10329654,0,0,0.0998519,75.700031,115.64493)"><flowRegion
         id="flowRegion3149"
         style="line-height:0.69999999;text-align:center;text-anchor:middle;fill:#ffffff"><rect
           id="rect3151"
           width="381.58011"
           height="106.20692"
           x="50.760166"
           y="889.93207"
           style="line-height:0.69999999;text-align:center;text-anchor:middle;fill:#ffffff" /></flowRegion><flowPara
         style="font-style:normal;font-variant:normal;font-weight:normal;font-stretch:normal;font-size:34.73603058px;line-height:0.69999999;font-family:'Latin Modern Mono Caps';-inkscape-font-specification:'Latin Modern Mono Caps';fill:#ffffff"
         id="flowPara3181">STELLAR</flowPara><flowPara
         style="font-style:normal;font-variant:normal;font-weight:normal;font-stretch:normal;font-size:34.73603058px;line-height:0.69999999;font-family:'Latin Modern Mono Caps';-inkscape-font-specification:'Latin Modern Mono Caps';fill:#ffffff"
         id="flowPara3187">  ISEN   </flowPara></flowRoot>    <text
       xml:space="preserve"
       style="font-style:normal;font-weight:normal;font-size:10.58333302px;line-height:1.25;font-family:sans-serif;letter-spacing:0px;word-spacing:0px;fill:#000000;fill-opacity:1;stroke:none;stroke-width:0.26458332"
       x="14.150483"
       y="286.53476"
       id="text3175"><tspan
         sodipodi:role="line"
         id="tspan3173"
         x="14.150483"
         y="295.89853"
         style="stroke-width:0.26458332"></tspan></text>
    <flowRoot
       xml:space="preserve"
       id="flowRoot3189"
       style="font-style:normal;font-weight:normal;font-size:40px;line-height:1.25;font-family:sans-serif;letter-spacing:0px;word-spacing:0px;fill:#000000;fill-opacity:1;stroke:none"
       transform="scale(0.26458333)"><flowRegion
         id="flowRegion3191"><rect
           id="rect3193"
           width="113.8947"
           height="135.86552"
           x="-18.687822"
           y="937.91431" /></flowRegion><flowPara
         id="flowPara3195"></flowPara></flowRoot>  </g>
</svg>
