<?xml version="1.0" encoding="UTF-8" standalone="no"?>
<!-- Created with Inkscape (http://www.inkscape.org/) -->

<svg
   xmlns:dc="http://purl.org/dc/elements/1.1/"
   xmlns:cc="http://creativecommons.org/ns#"
   xmlns:rdf="http://www.w3.org/1999/02/22-rdf-syntax-ns#"
   xmlns:svg="http://www.w3.org/2000/svg"
   xmlns="http://www.w3.org/2000/svg"
   xmlns:sodipodi="http://sodipodi.sourceforge.net/DTD/sodipodi-0.dtd"
   xmlns:inkscape="http://www.inkscape.org/namespaces/inkscape"
   width="33.646702mm"
   height="29.105598mm"
   viewBox="0 0 33.646702 29.105598"
   version="1.1"
   id="svg1149"
   inkscape:version="0.92.3 (2405546, 2018-03-11)"
   sodipodi:docname="spaceship.svg">
  <defs
     id="defs1143" />
  <sodipodi:namedview
     id="base"
     pagecolor="#ffffff"
     bordercolor="#666666"
     borderopacity="1.0"
     inkscape:pageopacity="0.0"
     inkscape:pageshadow="2"
     inkscape:zoom="0.35"
     inkscape:cx="-287.84425"
     inkscape:cy="-204.99729"
     inkscape:document-units="mm"
     inkscape:current-layer="layer1"
     showgrid="false"
     inkscape:window-width="1920"
     inkscape:window-height="1025"
     inkscape:window-x="0"
     inkscape:window-y="27"
     inkscape:window-maximized="1" />
  <metadata
     id="metadata1146">
    <rdf:RDF>
      <cc:Work
         rdf:about="">
        <dc:format>image/svg+xml</dc:format>
        <dc:type
           rdf:resource="http://purl.org/dc/dcmitype/StillImage" />
        <dc:title></dc:title>
      </cc:Work>
    </rdf:RDF>
  </metadata>
  <g
     inkscape:label="Calque 1"
     inkscape:groupmode="layer"
     id="layer1"
     transform="translate(-8.1230768,-65.488867)">
    <g
       style="display:inline"
       transform="matrix(0.2274896,0,0,0.19711551,6.8077014,54.911448)"
       id="layer1-67"
       inkscape:label="Calque 1">
      <path
         sodipodi:nodetypes="cccccc"
         inkscape:connector-curvature="0"
         id="path5264"
         d="m 41.882052,142.76325 -1.123449,4.96672 6.1472,6.01357 14.03165,13.0962 2.93996,-2.80633 C 58.175905,154.24419 50.545632,147.39674 41.882052,142.76325 Z"
         style="fill:#eeeef0;fill-opacity:1;stroke:#000000;stroke-width:0;stroke-linecap:butt;stroke-linejoin:miter;stroke-miterlimit:4;stroke-dasharray:none;stroke-opacity:1" />
      <path
         sodipodi:nodetypes="cccc"
         inkscape:connector-curvature="0"
         id="path4525"
         d="m 86.210049,121.02344 -48.769978,48.38391 c 3.35074,-5.81744 -0.286569,-7.73821 22.057841,-31.23951 8.27959,-7.55115 17.368687,-13.84865 26.712137,-17.1444 z"
         style="fill:#ff425f;fill-opacity:1;stroke:none;stroke-width:0.5;stroke-linecap:butt;stroke-linejoin:miter;stroke-miterlimit:4;stroke-dasharray:none;stroke-opacity:1" />
      <path
         sodipodi:nodetypes="ccccc"
         inkscape:connector-curvature="0"
         id="path4529"
         d="m 50.277104,147.92318 -9.35443,-6.1472 c 4.27531,-11.4263 10.0587,-22.1897 16.97162,-32.20598 l 27.796038,11.35895 c -12.572168,5.10779 -24.225118,13.5678 -35.413228,26.99423 z"
         style="fill:#efeee3;fill-opacity:1;stroke:none;stroke-width:0.5;stroke-linecap:butt;stroke-linejoin:miter;stroke-miterlimit:4;stroke-dasharray:none;stroke-opacity:1" />
      <path
         sodipodi:nodetypes="cccc"
         inkscape:connector-curvature="0"
         id="path5103"
         d="M 99.048682,107.69192 115.51915,91.388482 c -5.25104,-3.8025 -10.42864,-4.410557 -15.50162,-0.46772 -4.963978,4.63732 -5.973078,10.086798 -0.968848,16.771158 z"
         style="fill:#ffffff;stroke:none;stroke-width:0.5;stroke-linecap:butt;stroke-linejoin:miter;stroke-miterlimit:4;stroke-dasharray:none;stroke-opacity:1" />
      <path
         sodipodi:nodetypes="ccccccc"
         inkscape:connector-curvature="0"
         id="path5105"
         d="m 95.206662,111.40029 3.84202,-3.70837 c -2.86603,-3.41555 -6.16698,-10.276518 0.968848,-16.771158 6.67944,-4.846103 11.0812,-2.15834 15.50162,0.46772 l 3.64157,-3.74177 C 99.022772,73.084128 82.893462,96.623702 95.206672,111.40029 Z"
         style="fill:#00aaaf;fill-opacity:1;stroke:none;stroke-width:0.5;stroke-linecap:butt;stroke-linejoin:miter;stroke-miterlimit:4;stroke-dasharray:none;stroke-opacity:1" />
      <path
         sodipodi:nodetypes="cccc"
         inkscape:connector-curvature="0"
         id="path4523-3"
         d="m 58.033334,110.04367 c -7.23095,9.35627 -10.62251,18.23261 -15.23437,27.26149 -13.09424,-4.45332 -25.34694,-3.64707 -37.01683,0.80181 5.80956,-12.83861 22.69629,-32.24465 52.2512,-28.0633 z"
         style="fill:#ff375b;fill-opacity:1;stroke:none;stroke-width:0.5;stroke-linecap:butt;stroke-linejoin:miter;stroke-miterlimit:4;stroke-dasharray:none;stroke-opacity:1" />
      <path
         sodipodi:nodetypes="ccccccc"
         inkscape:connector-curvature="0"
         id="path4527-5"
         d="m 153.58219,53.783427 c -9.24586,0.1784 -17.39493,-0.40252 -40.09043,9.087155 -16.574358,8.48909 -30.420268,18.68347 -41.293143,30.73601 l -14.16528,16.437078 27.796045,11.35895 8.95353,-8.95353 z"
         style="fill:#efeee3;fill-opacity:1;stroke:none;stroke-width:0.5;stroke-linecap:butt;stroke-linejoin:miter;stroke-miterlimit:4;stroke-dasharray:none;stroke-opacity:1" />
      <path
         sodipodi:nodetypes="ccccc"
         inkscape:connector-curvature="0"
         id="path4529-9"
         d="m 50.315917,148.26322 -9.254204,-6.01357 c 4.27531,-11.4263 10.0587,-22.1897 16.97162,-32.20598 l 27.796039,11.35895 c -12.572169,5.10779 -24.325345,13.43417 -35.513455,26.8606 z"
         style="fill:#efeee3;fill-opacity:1;stroke:none;stroke-width:0.5;stroke-linecap:butt;stroke-linejoin:miter;stroke-miterlimit:4;stroke-dasharray:none;stroke-opacity:1" />
      <path
         sodipodi:nodetypes="cccc"
         inkscape:connector-curvature="0"
         id="path5101-2"
         d="m 109.37869,64.812439 20.05092,12.99629 24.15258,-24.0253 c -15.53775,-1.177797 -34.74606,6.417607 -44.2035,11.02901 z"
         style="fill:#ff425f;fill-opacity:1;stroke:none;stroke-width:0.5;stroke-linecap:butt;stroke-linejoin:miter;stroke-miterlimit:4;stroke-dasharray:none;stroke-opacity:1" />
      <path
         sodipodi:nodetypes="cccc"
         inkscape:connector-curvature="0"
         id="path5103-2"
         d="M 99.187722,108.16559 115.11485,91.484166 c -5.25104,-3.80249 -9.8853,-4.032574 -14.95828,-0.08974 -4.963978,4.63732 -5.973078,10.086804 -0.968848,16.771164 z"
         style="fill:#ffffff;stroke:none;stroke-width:0.5;stroke-linecap:butt;stroke-linejoin:miter;stroke-miterlimit:4;stroke-dasharray:none;stroke-opacity:1" />
      <path
         sodipodi:nodetypes="ccccccc"
         inkscape:connector-curvature="0"
         id="path5105-8"
         d="m 95.345702,111.87395 3.84202,-3.70836 c -2.86603,-3.41555 -6.16698,-10.276518 0.968848,-16.771168 6.67944,-4.846103 10.6796,-2.55994 15.10002,0.06612 l 3.75969,-3.552782 C 98.87833,73.345177 83.032502,97.097362 95.345712,111.87395 Z"
         style="fill:#00aaaf;fill-opacity:1;stroke:none;stroke-width:0.5;stroke-linecap:butt;stroke-linejoin:miter;stroke-miterlimit:4;stroke-dasharray:none;stroke-opacity:1" />
      <path
         sodipodi:nodetypes="cccc"
         inkscape:connector-curvature="0"
         id="path5103-3"
         d="m 99.42003,108.05205 16.30344,-16.47047 c 3.8025,5.25104 4.41056,10.42864 0.46772,15.50162 -4.63732,4.96398 -10.0868,5.97308 -16.77116,0.96885 z"
         style="fill:#ffffff;stroke:none;stroke-width:0.69999999;stroke-linecap:butt;stroke-linejoin:miter;stroke-miterlimit:4;stroke-dasharray:none;stroke-opacity:1" />
      <path
         sodipodi:nodetypes="ccccccc"
         inkscape:connector-curvature="0"
         id="path5105-1"
         d="m 95.71166,111.89407 3.70837,-3.84202 c 3.41555,2.86603 10.27652,6.16698 16.77116,-0.96885 4.8461,-6.67944 2.15834,-11.0812 -0.46772,-15.50162 l 3.74177,-3.64157 c 14.56258,20.13795 -8.97699,36.26726 -23.75358,23.95405 z"
         style="fill:#00aaaf;fill-opacity:1;stroke:none;stroke-width:0.69999999;stroke-linecap:butt;stroke-linejoin:miter;stroke-miterlimit:4;stroke-dasharray:none;stroke-opacity:1" />
      <path
         sodipodi:nodetypes="cccc"
         inkscape:connector-curvature="0"
         id="path4525-7-4"
         d="m 85.520342,121.60209 c -15.624414,15.24185 -32.34173,31.71849 -48.100419,47.82504 5.81744,-3.35075 7.549217,0.97806 31.050517,-21.96335 7.55115,-8.27959 13.754152,-16.51825 17.049902,-25.86169 z"
         style="fill:#da3046;fill-opacity:1;stroke:none;stroke-width:0.69999999;stroke-linecap:butt;stroke-linejoin:miter;stroke-miterlimit:4;stroke-dasharray:none;stroke-opacity:1" />
      <path
         sodipodi:nodetypes="ccccccccc"
         inkscape:connector-curvature="0"
         id="path4527-5-7"
         transform="scale(0.26458333)"
         d="m 580.46401,203.30218 -222.68276,221.20563 -33.83984,33.83985 c -19.35514,47.50254 -54.8752,91.06078 -102.05696,133.40376 l 23.26399,35.79741 c 43.18601,-16.15865 83.8678,-38.01696 121.72461,-64.14453 l 62.12304,-53.53711 c 45.55291,-41.09431 84.08322,-93.42706 116.16797,-156.07031 35.86647,-85.77827 34.62564,-115.54972 35.29995,-150.4947 z"
         style="fill:#deddd4;fill-opacity:1;stroke:none;stroke-width:2.64566922;stroke-linecap:butt;stroke-linejoin:miter;stroke-miterlimit:4;stroke-dasharray:none;stroke-opacity:1" />
      <path
         sodipodi:nodetypes="cccc"
         inkscape:connector-curvature="0"
         id="path5101-2-4"
         d="M 142.29951,97.72204 129.30322,77.67112 153.581,53.785781 c 1.11371,15.48434 -6.85955,34.320929 -11.28149,43.936259 z"
         style="fill:#da3046;fill-opacity:1;stroke:none;stroke-width:0.69999999;stroke-linecap:butt;stroke-linejoin:miter;stroke-miterlimit:4;stroke-dasharray:none;stroke-opacity:1" />
      <path
         sodipodi:nodetypes="cccc"
         inkscape:connector-curvature="0"
         id="path4523-3-9"
         d="m 97.06828,149.0674 c -9.99881,6.98107 -18.36425,10.4171 -27.320549,15.05719 4.45332,13.09424 3.706129,25.52412 -0.742751,37.19401 12.83861,-5.80956 32.24465,-22.69629 28.0633,-52.2512 z"
         style="fill:#da3046;fill-opacity:1;stroke:none;stroke-width:0.69999999;stroke-linecap:butt;stroke-linejoin:miter;stroke-miterlimit:4;stroke-dasharray:none;stroke-opacity:1" />
      <path
         sodipodi:nodetypes="cccc"
         inkscape:connector-curvature="0"
         id="path5103-2-5"
         d="m 98.94636,107.91301 16.30345,-16.47047 c 3.80249,5.25104 4.41055,10.42864 0.46772,15.50162 -4.63732,4.96398 -10.08681,5.97308 -16.77117,0.96885 z"
         style="fill:#c6edfc;fill-opacity:1;stroke:none;stroke-width:0.69999999;stroke-linecap:butt;stroke-linejoin:miter;stroke-miterlimit:4;stroke-dasharray:none;stroke-opacity:1" />
      <path
         sodipodi:nodetypes="ccccccc"
         inkscape:connector-curvature="0"
         id="path5105-8-0"
         d="m 95.238,111.75503 3.70836,-3.84202 c 3.41555,2.86603 10.27652,6.16698 16.77117,-0.96885 4.8461,-6.67944 2.08747,-11.104824 -0.53859,-15.525244 l 3.85989,-3.547076 c 14.56258,20.13795 -9.02424,36.19639 -23.80083,23.88318 z"
         style="fill:#00919b;fill-opacity:1;stroke:none;stroke-width:0.69999999;stroke-linecap:butt;stroke-linejoin:miter;stroke-miterlimit:4;stroke-dasharray:none;stroke-opacity:1" />
      <path
         sodipodi:nodetypes="cccc"
         inkscape:connector-curvature="0"
         id="path5258"
         d="m 16.83798,176.72871 18.30796,-13.69756 c 3.3568,-5.25274 -1.95087,-8.30212 -5.81311,-3.60814 z"
         style="fill:#ffccaa;stroke:#000000;stroke-width:0;stroke-linecap:butt;stroke-linejoin:miter;stroke-miterlimit:4;stroke-dasharray:none;stroke-opacity:1" />
      <path
         style="fill:#ffccaa;stroke:#000000;stroke-width:0;stroke-linecap:butt;stroke-linejoin:miter;stroke-miterlimit:4;stroke-dasharray:none;stroke-opacity:1"
         d="m 11.492589,195.43758 18.30796,-13.69756 c 3.3568,-5.25274 -1.95087,-8.30212 -5.81311,-3.60814 z"
         id="path5260"
         inkscape:connector-curvature="0"
         sodipodi:nodetypes="cccc" />
      <path
         sodipodi:nodetypes="cccc"
         inkscape:connector-curvature="0"
         id="path5262"
         d="m 34.634331,187.57605 18.30796,-13.69756 c 3.3568,-5.25274 -1.95087,-8.30212 -5.81311,-3.60814 z"
         style="fill:#ffccaa;stroke:#000000;stroke-width:0;stroke-linecap:butt;stroke-linejoin:miter;stroke-miterlimit:4;stroke-dasharray:none;stroke-opacity:1" />
    </g>
  </g>
</svg>
