<?xml version="1.0" encoding="UTF-8" standalone="no"?>
<!-- Created with Inkscape (http://www.inkscape.org/) -->

<svg
   xmlns:dc="http://purl.org/dc/elements/1.1/"
   xmlns:cc="http://creativecommons.org/ns#"
   xmlns:rdf="http://www.w3.org/1999/02/22-rdf-syntax-ns#"
   xmlns:svg="http://www.w3.org/2000/svg"
   xmlns="http://www.w3.org/2000/svg"
   xmlns:sodipodi="http://sodipodi.sourceforge.net/DTD/sodipodi-0.dtd"
   xmlns:inkscape="http://www.inkscape.org/namespaces/inkscape"
   width="54.963909mm"
   height="52.644619mm"
   viewBox="0 0 54.963909 52.644619"
   version="1.1"
   id="svg2951"
   inkscape:version="0.92.3 (2405546, 2018-03-11)"
   sodipodi:docname="earth.svg">
  <defs
     id="defs2945" />
  <sodipodi:namedview
     id="base"
     pagecolor="#ffffff"
     bordercolor="#666666"
     borderopacity="1.0"
     inkscape:pageopacity="0.0"
     inkscape:pageshadow="2"
     inkscape:zoom="0.98994949"
     inkscape:cx="294.04184"
     inkscape:cy="163.8104"
     inkscape:document-units="mm"
     inkscape:current-layer="layer1"
     showgrid="false"
     inkscape:window-width="1920"
     inkscape:window-height="1025"
     inkscape:window-x="0"
     inkscape:window-y="27"
     inkscape:window-maximized="1" />
  <metadata
     id="metadata2948">
    <rdf:RDF>
      <cc:Work
         rdf:about="">
        <dc:format>image/svg+xml</dc:format>
        <dc:type
           rdf:resource="http://purl.org/dc/dcmitype/StillImage" />
        <dc:title></dc:title>
      </cc:Work>
    </rdf:RDF>
  </metadata>
  <g
     inkscape:label="Calque 1"
     inkscape:groupmode="layer"
     id="layer1"
     transform="translate(-51.809198,-12.859938)">
    <ellipse
       ry="26.322309"
       rx="27.481955"
       cy="39.182247"
       cx="79.291153"
       id="ellipse4587"
       style="display:inline;opacity:0.131;fill:#006680;fill-opacity:0.95686275;stroke-width:0.2333363" />
    <ellipse
       ry="23.221724"
       rx="24.120958"
       cy="39.249992"
       cx="79.339233"
       id="ellipse4587-6"
       style="display:inline;opacity:0.131;fill:#80e5ff;fill-opacity:0.95686275;stroke-width:0.20532461" />
    <ellipse
       style="display:inline;opacity:1;fill:#00aad4;fill-opacity:0.95686275;stroke-width:0.17348939"
       id="path957"
       cx="79.291183"
       cy="39.284771"
       rx="20.222572"
       ry="19.775" />
    <path
       style="display:inline;opacity:0.41955836;fill:#2672a4;fill-opacity:1;stroke-width:0.12190446"
       d="M 77.583772,58.940517 C 76.76443,58.856114 75.44061,58.653783 74.800044,58.515054 L 74.155133,58.375392 73.249309,56.90597 c -5.685638,-9.223237 -6.218963,-19.835155 -1.479348,-29.435498 1.147442,-2.3242 2.719956,-4.757838 4.242629,-6.565949 l 1.023961,-1.215916 1.037465,-0.07067 c 2.384982,-0.16248 5.352454,0.219926 7.746552,0.998279 4.549531,1.479091 8.808494,4.987622 11.140206,9.177252 6.907356,12.411179 -1.205334,27.531336 -15.613982,29.100764 -1.123556,0.122386 -2.821554,0.143267 -3.76302,0.04633 z"
       id="path981"
       inkscape:connector-curvature="0" />
    <path
       style="display:inline;opacity:1;fill:#00aa44;stroke:#000000;stroke-width:0;stroke-linecap:butt;stroke-linejoin:miter;stroke-miterlimit:4;stroke-dasharray:none;stroke-opacity:1"
       d="m 73.208491,35.629335 h 6.110904 c 1.158269,-1.320896 3.375931,-2.808634 -0.122214,-5.654007 L 64.225455,29.853736 c -1.733675,1.307013 -3.576529,4.375812 -0.122204,6.079579 l 5.194262,0.06081 c -0.09149,-0.11544 1.329868,0.791427 -0.06114,2.978998 l -3.849872,0.121591 c -0.764001,1.466637 -2.451484,2.433943 0.427762,5.41083 l 16.499436,0.121592 c 4.0499,-2.773182 0.0561,-5.20076 -0.611081,-5.654015 H 73.330674 C 72.853743,38.043297 72.075978,37.608435 73.20846,35.629349 Z"
       id="path856"
       inkscape:connector-curvature="0"
       sodipodi:nodetypes="cccccccccccccc" />
    <path
       sodipodi:nodetypes="ccccc"
       inkscape:connector-curvature="0"
       id="path862"
       d="m 99.364466,37.478649 -6.672678,0.01331 c -1.97161,1.618543 -1.974712,3.540997 0,4.722866 l 6.622523,0.03101 c 0.195752,-1.503329 0.335222,-4.238259 0.05028,-4.767235 z"
       style="display:inline;opacity:1;fill:#00aa44;fill-opacity:1;stroke:#000000;stroke-width:0;stroke-linecap:butt;stroke-linejoin:miter;stroke-miterlimit:4;stroke-dasharray:none;stroke-opacity:1" />
    <path
       style="display:inline;opacity:1;fill:#00aa44;fill-opacity:1;stroke:#000000;stroke-width:0;stroke-linecap:butt;stroke-linejoin:miter;stroke-miterlimit:4;stroke-dasharray:none;stroke-opacity:1"
       d="m 69.277515,22.334407 2.577663,0.0013 c 3.214343,1.641003 2.448471,3.846937 0.517725,4.916762 l -8.733794,0.111524 c 0.793843,-1.002088 1.643241,-1.706945 2.827389,-2.871545 0.882766,-0.728413 1.489067,-1.502659 2.811017,-2.158254 z"
       id="path864"
       inkscape:connector-curvature="0"
       sodipodi:nodetypes="ccccccc" />
    <path
       sodipodi:nodetypes="ccccc"
       inkscape:connector-curvature="0"
       id="path866"
       d="m 92.170198,24.12112 -8.799707,0.182386 c -3.113314,2.187673 -3.118219,4.78611 0,6.383565 l 13.810635,-0.06081 C 96.204444,28.08455 94.135144,25.693013 92.170198,24.121108 Z"
       style="display:inline;opacity:1;fill:#00aa44;fill-opacity:1;stroke:#000000;stroke-width:0;stroke-linecap:butt;stroke-linejoin:miter;stroke-miterlimit:4;stroke-dasharray:none;stroke-opacity:1" />
    <path
       style="display:inline;opacity:1;fill:#00aa44;fill-opacity:1;stroke:#000000;stroke-width:0;stroke-linecap:butt;stroke-linejoin:miter;stroke-miterlimit:4;stroke-dasharray:none;stroke-opacity:1"
       d="m 97.144432,48.370491 -13.860083,0.234281 c -2.111607,1.475821 -2.315453,3.508417 0.446661,5.358933 l 8.952479,0.182393 c 1.565975,-1.851236 3.517886,-3.341092 4.460943,-5.775607 z"
       id="path868"
       inkscape:connector-curvature="0"
       sodipodi:nodetypes="ccccc" />
    <path
       sodipodi:nodetypes="ccccc"
       inkscape:connector-curvature="0"
       id="path874"
       d="m 80.871428,30.790029 h 3.611783 c 1.703305,1.198939 0.625044,2.455946 -0.01668,2.565799 l -3.519824,-0.01826 c -0.489416,-0.339119 -1.663173,-1.181281 -0.07525,-2.54753 z"
       style="display:inline;opacity:1;fill:#dbe3de;stroke:#000000;stroke-width:0;stroke-linecap:butt;stroke-linejoin:miter;stroke-miterlimit:4;stroke-dasharray:none;stroke-opacity:1" />
    <path
       style="display:inline;opacity:1;fill:#dbe3de;stroke:#000000;stroke-width:0;stroke-linecap:butt;stroke-linejoin:miter;stroke-miterlimit:4;stroke-dasharray:none;stroke-opacity:1"
       d="m 62.666849,32.421109 h 7.809325 c 3.682833,1.663193 1.351456,3.406939 -0.03617,3.559333 l -7.610473,-0.02536 c -1.058226,-0.470432 -3.59608,-1.638699 -0.162693,-3.533995 z"
       id="path876"
       inkscape:connector-curvature="0"
       sodipodi:nodetypes="ccccc" />
    <path
       sodipodi:nodetypes="ccccc"
       inkscape:connector-curvature="0"
       id="path878"
       d="m 82.617701,52.389842 h 4.789054 c 2.258476,1.410031 0.828759,2.888362 -0.02216,3.017556 l -4.667097,-0.02149 c -0.648942,-0.398827 -2.205263,-1.389269 -0.09977,-2.996076 z"
       style="display:inline;opacity:1;fill:#dbe3de;stroke:#000000;stroke-width:0;stroke-linecap:butt;stroke-linejoin:miter;stroke-miterlimit:4;stroke-dasharray:none;stroke-opacity:1" />
    <path
       style="display:inline;opacity:1;fill:#dbe3de;stroke:#000000;stroke-width:0;stroke-linecap:butt;stroke-linejoin:miter;stroke-miterlimit:4;stroke-dasharray:none;stroke-opacity:1"
       d="m 84.768566,47.55687 7.72926,6e-6 c 3.645063,1.608609 1.337606,3.295134 -0.03584,3.442522 l -7.532434,-0.02452 c -1.047366,-0.454994 -3.559197,-1.58492 -0.161028,-3.418018 z"
       id="path880"
       inkscape:connector-curvature="0"
       sodipodi:nodetypes="ccccc" />
    <path
       style="display:inline;opacity:1;fill:#dbe3de;stroke:#000000;stroke-width:0;stroke-linecap:butt;stroke-linejoin:miter;stroke-miterlimit:4;stroke-dasharray:none;stroke-opacity:1"
       d="m 90.05081,30.631487 c 0.631373,1.495414 -0.607812,0.909989 -2.496971,1.152518 -2.693673,2.014875 -1.534642,3.20322 0.198608,4.377298 h 11.381556 c -0.409431,-2.617306 -1.070971,-4.41814 -1.429519,-4.533299 l -5.569513,-0.02117 c -0.05812,-0.351248 -0.286152,-0.8581 0.277495,-1.011545 l 0.747729,0.0045 c 0.327495,-0.435068 0.723231,-0.745437 -0.11142,-1.311889 l -3.839032,0.02928 c -0.533258,0.367264 -0.822053,0.744672 0.01446,1.310327 z"
       id="path858"
       inkscape:connector-curvature="0"
       sodipodi:nodetypes="cccccccccccc" />
    <path
       sodipodi:nodetypes="ccccc"
       inkscape:connector-curvature="0"
       id="path882"
       d="m 64.740337,51.895594 11.008194,0.06235 c 2.111605,1.475828 2.877162,2.734614 0.115036,4.585134 l -5.538834,0.0534 C 66.93493,55.375091 65.620997,53.68432 64.740302,51.895598 Z"
       style="display:inline;opacity:1;fill:#00aa44;fill-opacity:1;stroke:#000000;stroke-width:0;stroke-linecap:butt;stroke-linejoin:miter;stroke-miterlimit:4;stroke-dasharray:none;stroke-opacity:1" />
    <path
       style="display:inline;opacity:1;fill:#dbe3de;stroke:#000000;stroke-width:0;stroke-linecap:butt;stroke-linejoin:miter;stroke-miterlimit:4;stroke-dasharray:none;stroke-opacity:1"
       d="m 79.960946,37.554452 h 4.66674 c 2.200819,1.411169 0.807615,2.89069 -0.0216,3.019985 l -4.547919,-0.02148 c -0.632368,-0.39915 -2.148948,-1.390392 -0.0972,-2.998501 z"
       id="path872"
       inkscape:connector-curvature="0"
       sodipodi:nodetypes="ccccc" />
    <path
       sodipodi:nodetypes="cccccccccccccc"
       inkscape:connector-curvature="0"
       id="path860"
       d="m 70.25347,48.596241 h 3.460754 c 0.640186,-0.760178 1.516403,-1.652893 -0.06921,-3.247088 L 62.919202,45.25783 c -0.981823,0.750616 -1.939067,2.384054 0.01713,3.362527 l 5.210195,-0.0081 c -0.05173,-0.06629 0.645113,0.647964 -0.142616,1.904283 l -2.180294,0.06983 c -0.347696,0.715484 -1.366048,1.364569 0.242268,3.107428 l 8.56625,0.02684 c 2.6613,-1.973291 -0.357057,-3.231373 -0.108396,-3.247088 h -3.898634 c -0.261202,-0.532224 -0.76464,-0.691317 -0.371693,-1.87733 z"
       style="display:inline;opacity:1;fill:#dbe3de;stroke:#000000;stroke-width:0;stroke-linecap:butt;stroke-linejoin:miter;stroke-miterlimit:4;stroke-dasharray:none;stroke-opacity:1" />
    <path
       style="display:inline;opacity:1;fill:#dbe3de;stroke:#000000;stroke-width:0;stroke-linecap:butt;stroke-linejoin:miter;stroke-miterlimit:4;stroke-dasharray:none;stroke-opacity:1"
       d="m 68.136444,24.564501 c -3.423376,2.240728 -1.097273,3.594828 -0.0916,4.225305 l 8.585825,0.03044 c 2.889211,-0.973989 2.031159,-3.486456 0.244417,-4.255702 z"
       id="path870"
       inkscape:connector-curvature="0"
       sodipodi:nodetypes="ccccc" />
    <path
       style="display:inline;opacity:0.51999996;fill:#164465;fill-opacity:1;stroke:#000000;stroke-width:0;stroke-linecap:butt;stroke-linejoin:miter;stroke-miterlimit:4;stroke-dasharray:none;stroke-opacity:1"
       d="m 73.941241,58.367651 c -8.900005,-13.002388 -6.452294,-28.292683 3.091211,-38.785736 -1.490614,0.223877 -2.886535,0.547898 -4.18881,0.960121 -3.970025,1.256673 -6.747023,3.424967 -9.004304,5.983167 -5.011264,5.679279 -6.059268,13.791857 -3.178711,20.514829 1.631169,3.807071 4.594198,7.188025 8.677243,9.470766 1.438096,0.80401 2.871499,1.351341 4.603371,1.856853 z"
       id="path963-3"
       inkscape:connector-curvature="0"
       sodipodi:nodetypes="ccssssc" />
    <path
       style="display:inline;opacity:1;fill:#dbe3de;stroke:#000000;stroke-width:0;stroke-linecap:butt;stroke-linejoin:miter;stroke-miterlimit:4;stroke-dasharray:none;stroke-opacity:1"
       d="m 80.871428,30.790029 h 3.611783 c 1.703305,1.198939 0.625044,2.455946 -0.01668,2.565799 l -3.519824,-0.01826 c -0.489416,-0.339119 -1.663173,-1.181281 -0.07525,-2.54753 z"
       id="path890"
       inkscape:connector-curvature="0"
       sodipodi:nodetypes="ccccc" />
  </g>
</svg>
