<?xml version="1.0" encoding="UTF-8" standalone="no"?>
<!-- Created with Inkscape (http://www.inkscape.org/) -->

<svg
   xmlns:dc="http://purl.org/dc/elements/1.1/"
   xmlns:cc="http://creativecommons.org/ns#"
   xmlns:rdf="http://www.w3.org/1999/02/22-rdf-syntax-ns#"
   xmlns:svg="http://www.w3.org/2000/svg"
   xmlns="http://www.w3.org/2000/svg"
   xmlns:sodipodi="http://sodipodi.sourceforge.net/DTD/sodipodi-0.dtd"
   xmlns:inkscape="http://www.inkscape.org/namespaces/inkscape"
   width="31.641665mm"
   height="30.735992mm"
   viewBox="0 0 31.641665 30.735992"
   version="1.1"
   id="svg3047"
   sodipodi:docname="jupiter.svg"
   inkscape:version="0.92.3 (2405546, 2018-03-11)">
  <defs
     id="defs3041" />
  <sodipodi:namedview
     id="base"
     pagecolor="#ffffff"
     bordercolor="#666666"
     borderopacity="1.0"
     inkscape:pageopacity="0.0"
     inkscape:pageshadow="2"
     inkscape:zoom="0.35"
     inkscape:cx="-45.311677"
     inkscape:cy="-358.4887"
     inkscape:document-units="mm"
     inkscape:current-layer="layer1"
     showgrid="false"
     inkscape:window-width="1920"
     inkscape:window-height="1025"
     inkscape:window-x="0"
     inkscape:window-y="27"
     inkscape:window-maximized="1" />
  <metadata
     id="metadata3044">
    <rdf:RDF>
      <cc:Work
         rdf:about="">
        <dc:format>image/svg+xml</dc:format>
        <dc:type
           rdf:resource="http://purl.org/dc/dcmitype/StillImage" />
        <dc:title></dc:title>
      </cc:Work>
    </rdf:RDF>
  </metadata>
  <g
     inkscape:label="Calque 1"
     inkscape:groupmode="layer"
     id="layer1"
     transform="translate(-44.655357,-118.34628)">
    <ellipse
       ry="15.367996"
       rx="15.773746"
       cy="133.71428"
       cx="60.4977"
       id="ellipse5009-2"
       style="display:inline;opacity:1;fill:#916d52;fill-opacity:1;stroke-width:0.13507424" />
    <path
       style="display:inline;opacity:1;fill:#c1b0a5;fill-opacity:1;stroke:#000000;stroke-width:0;stroke-linecap:butt;stroke-linejoin:miter;stroke-miterlimit:4;stroke-dasharray:none;stroke-opacity:1"
       d="m 70.951586,122.16688 -20.71802,-0.10357 c -1.73976,1.66061 -1.66777,1.69825 -2.56882,2.79783 l 25.80064,0.0698 c -0.98508,-1.31242 -1.143129,-1.44896 -2.5138,-2.76405 z"
       id="path5019-6"
       inkscape:connector-curvature="0"
       sodipodi:nodetypes="cccccc" />
    <path
       style="display:inline;opacity:1;fill:#d38d5f;stroke:#000000;stroke-width:0;stroke-linecap:butt;stroke-linejoin:miter;stroke-miterlimit:4;stroke-dasharray:none;stroke-opacity:1"
       d="m 51.050156,123.56506 h 3.73549 c 1.76163,1.0958 0.64645,2.24467 -0.0173,2.34507 l -3.640369,-0.0167 c -0.506181,-0.30995 -1.720131,-1.07966 -0.0778,-2.32838 z"
       id="path5027-3"
       inkscape:connector-curvature="0"
       sodipodi:nodetypes="ccccc" />
    <path
       sodipodi:nodetypes="ccccc"
       inkscape:connector-curvature="0"
       id="path12406"
       d="m 45.454806,129.21868 c 0.45097,-1.55278 1.17949,-2.78461 1.22129,-2.85993 l 27.68468,0.0387 c 0.89739,1.32364 1.218639,2.45633 1.19461,2.80349 z"
       style="display:inline;opacity:1;fill:#dbd0c4;fill-opacity:1;stroke:#000000;stroke-width:0;stroke-linecap:butt;stroke-linejoin:miter;stroke-miterlimit:4;stroke-dasharray:none;stroke-opacity:1" />
    <path
       style="display:inline;opacity:1;fill:#dbd0c4;fill-opacity:1;stroke:#000000;stroke-width:0;stroke-linecap:butt;stroke-linejoin:miter;stroke-miterlimit:4;stroke-dasharray:none;stroke-opacity:1"
       d="m 45.102986,137.25968 c -0.59902,-2.01875 -0.53036,-5.3156 -0.18253,-5.45885 l 31.200371,0.0204 c 0.512429,2.71921 -0.256432,5.16883 -0.251222,5.46009 z"
       id="path12408"
       inkscape:connector-curvature="0"
       sodipodi:nodetypes="ccccc" />
    <path
       sodipodi:nodetypes="ccccc"
       inkscape:connector-curvature="0"
       id="path12410"
       d="m 48.814596,143.97487 c -1.91007,-1.66061 -1.36331,-2.03235 -2.35256,-3.13194 l 28.05899,-0.11991 c -0.40033,1.10531 -1.325639,2.35477 -2.133211,3.26182 -7.323419,-0.0172 -15.886059,-0.10691 -23.573219,-0.01 z"
       style="display:inline;opacity:1;fill:#c1b0a5;fill-opacity:1;stroke:#000000;stroke-width:0;stroke-linecap:butt;stroke-linejoin:miter;stroke-miterlimit:4;stroke-dasharray:none;stroke-opacity:1" />
    <path
       sodipodi:nodetypes="ccccc"
       inkscape:connector-curvature="0"
       id="path12412"
       d="m 67.490156,139.75582 h 3.73549 c 1.76163,1.0958 0.646451,2.24467 -0.0173,2.34507 l -3.640369,-0.0167 c -0.50618,-0.30994 -1.72013,-1.07966 -0.0778,-2.32838 z"
       style="display:inline;opacity:1;fill:#d38d5f;stroke:#000000;stroke-width:0;stroke-linecap:butt;stroke-linejoin:miter;stroke-miterlimit:4;stroke-dasharray:none;stroke-opacity:1" />
    <path
       sodipodi:nodetypes="ccssssc"
       inkscape:connector-curvature="0"
       id="path5041-5"
       d="m 56.361296,148.59393 c -6.94208,-10.10468 -5.03284,-21.98743 2.41115,-30.14203 -1.16268,0.17398 -2.25151,0.42579 -3.26729,0.74615 -3.09664,0.97661 -5.26272,2.66169 -7.02342,4.64977 -3.90882,4.41362 -4.72627,10.71824 -2.47943,15.94296 1.27234,2.95864 3.58352,5.58612 6.76832,7.36012 1.12172,0.62483 2.23979,1.05019 3.59067,1.44303 z"
       style="display:inline;opacity:0.43000004;fill:#22241c;stroke:#000000;stroke-width:0;stroke-linecap:butt;stroke-linejoin:miter;stroke-miterlimit:4;stroke-dasharray:none;stroke-opacity:1" />
  </g>
</svg>
