<?xml version="1.0" encoding="UTF-8" standalone="no"?>
<!-- Created with Inkscape (http://www.inkscape.org/) -->

<svg
   xmlns:dc="http://purl.org/dc/elements/1.1/"
   xmlns:cc="http://creativecommons.org/ns#"
   xmlns:rdf="http://www.w3.org/1999/02/22-rdf-syntax-ns#"
   xmlns:svg="http://www.w3.org/2000/svg"
   xmlns="http://www.w3.org/2000/svg"
   xmlns:sodipodi="http://sodipodi.sourceforge.net/DTD/sodipodi-0.dtd"
   xmlns:inkscape="http://www.inkscape.org/namespaces/inkscape"
   width="31.557337mm"
   height="30.735992mm"
   viewBox="0 0 31.557337 30.735992"
   version="1.1"
   id="svg3047"
   inkscape:version="0.92.3 (2405546, 2018-03-11)"
   sodipodi:docname="mars.svg">
  <defs
     id="defs3041" />
  <sodipodi:namedview
     id="base"
     pagecolor="#ffffff"
     bordercolor="#666666"
     borderopacity="1.0"
     inkscape:pageopacity="0.0"
     inkscape:pageshadow="2"
     inkscape:zoom="0.35"
     inkscape:cx="373.92163"
     inkscape:cy="-416.20196"
     inkscape:document-units="mm"
     inkscape:current-layer="layer1"
     showgrid="false"
     inkscape:window-width="1920"
     inkscape:window-height="1025"
     inkscape:window-x="0"
     inkscape:window-y="27"
     inkscape:window-maximized="1" />
  <metadata
     id="metadata3044">
    <rdf:RDF>
      <cc:Work
         rdf:about="">
        <dc:format>image/svg+xml</dc:format>
        <dc:type
           rdf:resource="http://purl.org/dc/dcmitype/StillImage" />
        <dc:title></dc:title>
      </cc:Work>
    </rdf:RDF>
  </metadata>
  <g
     inkscape:label="Calque 1"
     inkscape:groupmode="layer"
     id="layer1"
     transform="translate(-6.8999033,-7.9772396)">
    <ellipse
       ry="15.367996"
       rx="15.773746"
       cy="23.345236"
       cx="22.673649"
       id="ellipse5009"
       style="display:inline;opacity:1;fill:#aa4400;fill-opacity:0.95686275;stroke-width:0.13507424" />
    <path
       inkscape:connector-curvature="0"
       id="path5011"
       d="m 21.341839,38.62058 c -0.6391,-0.0656 -1.67169,-0.22283 -2.17133,-0.33064 l -0.50304,-0.10855 -0.70655,-1.14195 c -4.43484,-7.16776 -4.85084,-15.41474 -1.1539,-22.87558 0.89501,-1.80623 2.12159,-3.69751 3.30928,-5.1026705 l 0.7987,-0.94494 0.80923,-0.055 c 1.8603,-0.12627 4.17495,0.17091 6.04236,0.7758 3.54866,1.14947 6.8707,3.8761005 8.68944,7.1320405 5.38779,9.64525 -0.94017,21.39578 -12.17901,22.61545 -0.87639,0.0951 -2.20084,0.11133 -2.93518,0.036 z"
       style="display:inline;opacity:0.41955836;fill:#ff6600;fill-opacity:1;stroke-width:0.0949116" />
    <path
       sodipodi:nodetypes="cccccccccccccc"
       inkscape:connector-curvature="0"
       id="path5013"
       d="m 16.133699,22.48884 h 4.76655 c 0.90346,-1.02653 2.63325,-2.18271 -0.0953,-4.39397 l -11.67804,-0.0945 c -1.35229,1.01574 -2.78973,3.40063 -0.0953,4.72471 l 4.05156,0.0473 c -0.0713,-0.0897 1.03731,0.61504 -0.0476,2.3151 l -3.00293,0.0945 c -0.59592,1.13979 -1.91217,1.89152 0.33367,4.20499 l 12.86968,0.0945 c 3.15893,-2.15516 0.0437,-4.04173 -0.47666,-4.39398 l -6.53017,10e-6 c -0.37201,-0.72261 -0.97868,-1.06056 -0.0953,-2.59859 z"
       style="display:inline;opacity:1;fill:#ffcc00;stroke:#280000;stroke-width:0;stroke-linecap:butt;stroke-linejoin:miter;stroke-miterlimit:4;stroke-dasharray:none;stroke-opacity:1" />
    <path
       style="display:inline;opacity:1;fill:#ffcc00;fill-opacity:1;stroke:#000000;stroke-width:0;stroke-linecap:butt;stroke-linejoin:miter;stroke-miterlimit:4;stroke-dasharray:none;stroke-opacity:1"
       d="m 38.330919,21.94164 -5.20473,0.0103 c -1.53787,1.25784 -1.5403,2.75187 0,3.67034 l 5.16561,0.0241 c 0.15269,-1.16831 0.26148,-3.29373 0.0392,-3.70482 z"
       id="path5015"
       inkscape:connector-curvature="0"
       sodipodi:nodetypes="ccccc" />
    <path
       sodipodi:nodetypes="cccccc"
       inkscape:connector-curvature="0"
       id="path5017"
       d="m 14.520349,10.18422 2.0106,9.1e-4 c 2.50722,1.27529 1.90983,2.98963 0.40383,3.82103 l -6.81243,0.0867 c 1.26473,-1.70696 2.81212,-2.91746 4.398,-3.90887 z"
       style="display:inline;opacity:1;fill:#ffcc00;fill-opacity:1;stroke:#000000;stroke-width:0;stroke-linecap:butt;stroke-linejoin:miter;stroke-miterlimit:4;stroke-dasharray:none;stroke-opacity:1" />
    <path
       style="display:inline;opacity:1;fill:#ffcc00;fill-opacity:1;stroke:#000000;stroke-width:0;stroke-linecap:butt;stroke-linejoin:miter;stroke-miterlimit:4;stroke-dasharray:none;stroke-opacity:1"
       d="m 32.998069,11.72897 -6.86383,0.14174 c -2.42841,1.70013 -2.43223,3.71949 0,4.96093 l 10.7724,-0.0473 c -0.76182,-1.97527 -2.3759,-3.83383 -3.90857,-5.05542 z"
       id="path5019"
       inkscape:connector-curvature="0"
       sodipodi:nodetypes="ccccc" />
    <path
       sodipodi:nodetypes="ccccc"
       inkscape:connector-curvature="0"
       id="path5021"
       d="m 36.332019,30.74025 -10.81098,0.18207 c -1.64706,1.14693 -1.80605,2.72653 0.34841,4.16466 l 6.98299,0.14174 c 1.22147,-1.43868 2.74399,-2.5965 3.47958,-4.48847 z"
       style="display:inline;opacity:1;fill:#ffcc00;fill-opacity:1;stroke:#000000;stroke-width:0;stroke-linecap:butt;stroke-linejoin:miter;stroke-miterlimit:4;stroke-dasharray:none;stroke-opacity:1" />
    <path
       style="display:inline;opacity:1;fill:#a02c2c;stroke:#000000;stroke-width:0;stroke-linecap:butt;stroke-linejoin:miter;stroke-miterlimit:4;stroke-dasharray:none;stroke-opacity:1"
       d="m 25.040149,10.74326 2.81723,1e-5 c 1.32858,0.93174 0.48753,1.90861 -0.0131,1.99399 l -2.74548,-0.0142 c -0.38175,-0.26355 -1.29728,-0.91803 -0.0587,-1.9798 z"
       id="path5023"
       inkscape:connector-curvature="0"
       sodipodi:nodetypes="ccccc" />
    <path
       sodipodi:nodetypes="ccccc"
       inkscape:connector-curvature="0"
       id="path5025"
       d="m 11.407409,18.81441 h 6.09134 c 2.87264,1.29254 1.05414,2.64768 -0.0282,2.76612 l -5.93623,-0.0197 c -0.82542,-0.3656 -2.80496,-1.27351 -0.1269,-2.74642 z"
       style="display:inline;opacity:1;fill:#f9f9f9;stroke:#000000;stroke-width:0;stroke-linecap:butt;stroke-linejoin:miter;stroke-miterlimit:4;stroke-dasharray:none;stroke-opacity:1" />
    <path
       style="display:inline;opacity:1;fill:#782121;stroke:#000000;stroke-width:0;stroke-linecap:butt;stroke-linejoin:miter;stroke-miterlimit:4;stroke-dasharray:none;stroke-opacity:1"
       d="m 18.273459,34.22447 h 3.73549 c 1.76163,1.0958 0.64645,2.24467 -0.0173,2.34507 l -3.64037,-0.0167 c -0.50618,-0.30995 -1.72013,-1.07966 -0.0778,-2.32838 z"
       id="path5027"
       inkscape:connector-curvature="0"
       sodipodi:nodetypes="ccccc" />
    <path
       sodipodi:nodetypes="ccccc"
       inkscape:connector-curvature="0"
       id="path5029"
       d="m 12.413889,27.34666 h 6.02888 c 2.84318,1.25012 1.04334,2.5608 -0.0279,2.67533 l -5.87537,-0.019 c -0.81694,-0.3536 -2.77619,-1.23172 -0.12559,-2.6563 z"
       style="display:inline;opacity:1;fill:#782121;stroke:#000000;stroke-width:0;stroke-linecap:butt;stroke-linejoin:miter;stroke-miterlimit:4;stroke-dasharray:none;stroke-opacity:1" />
    <path
       sodipodi:nodetypes="cccccccccccc"
       inkscape:connector-curvature="0"
       id="path5031"
       d="m 31.066199,16.11692 c 0.49247,1.16214 -0.4741,0.7072 -1.94765,0.89567 -2.10109,1.56585 -1.19703,2.48936 0.15491,3.40178 h 8.87769 c -0.31934,-2.03401 -0.83536,-3.43352 -1.11503,-3.52301 l -4.34426,-0.0165 c -0.0453,-0.27297 -0.22321,-0.66687 0.21644,-0.78612 l 0.58325,0.004 c 0.25544,-0.33811 0.56411,-0.57931 -0.087,-1.01953 l -2.99448,0.0227 c -0.41594,0.28541 -0.64119,0.57871 0.0113,1.01831 z"
       style="display:inline;opacity:1;fill:#782121;stroke:#000000;stroke-width:0;stroke-linecap:butt;stroke-linejoin:miter;stroke-miterlimit:4;stroke-dasharray:none;stroke-opacity:1" />
    <path
       style="display:inline;opacity:1;fill:#ffd42a;fill-opacity:1;stroke:#000000;stroke-width:0;stroke-linecap:butt;stroke-linejoin:miter;stroke-miterlimit:4;stroke-dasharray:none;stroke-opacity:1"
       d="m 9.622969,31.72826 8.58647,0.0485 c 1.64706,1.14692 2.24422,2.12518 0.0898,3.5633 l -4.32033,0.0415 c -2.64407,-0.9492 -3.66895,-2.26316 -4.3559,-3.65325 z"
       id="path5033"
       inkscape:connector-curvature="0"
       sodipodi:nodetypes="ccccc" />
    <path
       sodipodi:nodetypes="ccccc"
       inkscape:connector-curvature="0"
       id="path5035"
       d="m 21.325149,19.39467 3.6401,10e-6 c 1.71664,1.09668 0.62993,2.24648 -0.0168,2.34696 l -3.54741,-0.0168 c -0.49326,-0.31019 -1.6762,-1.08053 -0.0759,-2.33025 z"
       style="display:inline;opacity:1;fill:#aa0000;stroke:#000000;stroke-width:0;stroke-linecap:butt;stroke-linejoin:miter;stroke-miterlimit:4;stroke-dasharray:none;stroke-opacity:1" />
    <path
       style="display:inline;opacity:1;fill:#a02c2c;stroke:#000000;stroke-width:0;stroke-linecap:butt;stroke-linejoin:miter;stroke-miterlimit:4;stroke-dasharray:none;stroke-opacity:1"
       d="m 31.225269,27.58154 h 2.69941 c 0.49936,-0.59077 1.1828,-1.28453 -0.054,-2.52345 l -8.36621,-0.071 c -0.76584,0.58333 -1.51248,1.85274 0.0134,2.61316 l 4.064,-0.006 c -0.0404,-0.0515 0.50319,0.50355 -0.11125,1.47989 l -1.70064,0.0542 c -0.27121,0.55604 -1.06553,1.06047 0.18897,2.41492 l 6.68175,0.0208 c 2.07582,-1.53353 -0.27851,-2.51124 -0.0846,-2.52344 h -3.04096 c -0.20374,-0.41362 -0.59642,-0.53727 -0.28992,-1.45896 z"
       id="path5037"
       inkscape:connector-curvature="0"
       sodipodi:nodetypes="cccccccccccccc" />
    <path
       sodipodi:nodetypes="ccccc"
       inkscape:connector-curvature="0"
       id="path5039"
       d="m 13.972849,11.90551 c -2.67026,1.74136 -0.85588,2.7937 -0.0715,3.28366 l 6.697,0.0236 c 2.2536,-0.75693 1.58432,-2.70948 0.19066,-3.3073 z"
       style="display:inline;opacity:1;fill:#800000;stroke:#000000;stroke-width:0;stroke-linecap:butt;stroke-linejoin:miter;stroke-miterlimit:4;stroke-dasharray:none;stroke-opacity:1" />
    <path
       sodipodi:nodetypes="ccssssc"
       inkscape:connector-curvature="0"
       id="path5041"
       d="m 18.503849,38.25829 c -6.94208,-10.10469 -5.03284,-21.98744 2.41115,-30.1420405 -1.16268,0.17398 -2.25151,0.42579 -3.26729,0.74615 -3.09664,0.97661 -5.26272,2.6616905 -7.02342,4.6497705 -3.90882,4.41362 -4.72627,10.71824 -2.47943,15.94296 1.27234,2.95863 3.58352,5.58611 6.76832,7.36012 1.12172,0.62484 2.23979,1.0502 3.59067,1.44304 z"
       style="display:inline;opacity:0.43000004;fill:#22241c;stroke:#000000;stroke-width:0;stroke-linecap:butt;stroke-linejoin:miter;stroke-miterlimit:4;stroke-dasharray:none;stroke-opacity:1" />
  </g>
</svg>
