<?xml version="1.0" encoding="UTF-8" standalone="no"?>
<!-- Created with Inkscape (http://www.inkscape.org/) -->

<svg
   xmlns:dc="http://purl.org/dc/elements/1.1/"
   xmlns:cc="http://creativecommons.org/ns#"
   xmlns:rdf="http://www.w3.org/1999/02/22-rdf-syntax-ns#"
   xmlns:svg="http://www.w3.org/2000/svg"
   xmlns="http://www.w3.org/2000/svg"
   xmlns:sodipodi="http://sodipodi.sourceforge.net/DTD/sodipodi-0.dtd"
   xmlns:inkscape="http://www.inkscape.org/namespaces/inkscape"
   width="26.216425mm"
   height="25.506321mm"
   viewBox="0 0 26.216425 25.506321"
   version="1.1"
   id="svg3047"
   sodipodi:docname="moon.svg"
   inkscape:version="0.92.3 (2405546, 2018-03-11)">
  <defs
     id="defs3041" />
  <sodipodi:namedview
     id="base"
     pagecolor="#ffffff"
     bordercolor="#666666"
     borderopacity="1.0"
     inkscape:pageopacity="0.0"
     inkscape:pageshadow="2"
     inkscape:zoom="0.35"
     inkscape:cx="123.46448"
     inkscape:cy="200.57042"
     inkscape:document-units="mm"
     inkscape:current-layer="layer1"
     showgrid="false"
     inkscape:window-width="1920"
     inkscape:window-height="1025"
     inkscape:window-x="0"
     inkscape:window-y="27"
     inkscape:window-maximized="1" />
  <metadata
     id="metadata3044">
    <rdf:RDF>
      <cc:Work
         rdf:about="">
        <dc:format>image/svg+xml</dc:format>
        <dc:type
           rdf:resource="http://purl.org/dc/dcmitype/StillImage" />
        <dc:title></dc:title>
      </cc:Work>
    </rdf:RDF>
  </metadata>
  <g
     inkscape:label="Calque 1"
     inkscape:groupmode="layer"
     id="layer1"
     transform="translate(-5.790597,-11.348038)">
    <ellipse
       style="opacity:1;fill:#c8b7b7;fill-opacity:1;stroke:#cd0047;stroke-width:0;stroke-miterlimit:4;stroke-dasharray:none;stroke-opacity:1"
       id="path5102"
       cx="15.149824"
       cy="16.732714"
       rx="1.2047991"
       ry="0.94494045" />
    <ellipse
       style="display:inline;opacity:1;fill:#5f5f5f;fill-opacity:1;stroke:#cd0047;stroke-width:0;stroke-miterlimit:4;stroke-dasharray:none;stroke-opacity:1"
       id="path5043"
       cx="18.78517"
       cy="24.027102"
       rx="10.423512"
       ry="10.289877" />
    <ellipse
       style="opacity:1;fill:#333333;fill-opacity:1;stroke:#cd0047;stroke-width:0;stroke-miterlimit:4;stroke-dasharray:none;stroke-opacity:1"
       id="path5140"
       cx="11.464552"
       cy="24.788332"
       rx="1.2520461"
       ry="1.2047991" />
    <ellipse
       style="opacity:1;fill:#333333;fill-opacity:1;stroke:#cd0047;stroke-width:0;stroke-miterlimit:4;stroke-dasharray:none;stroke-opacity:1"
       id="path5142"
       cx="15.811293"
       cy="16.425615"
       rx="1.063058"
       ry="0.96856403" />
    <ellipse
       style="opacity:1;fill:#333333;fill-opacity:1;stroke:#cd0047;stroke-width:0;stroke-miterlimit:4;stroke-dasharray:none;stroke-opacity:1"
       id="path5144"
       cx="21.835287"
       cy="15.976763"
       rx="0.8504464"
       ry="0.70870537" />
    <ellipse
       style="opacity:1;fill:#333333;fill-opacity:1;stroke:#cd0047;stroke-width:0;stroke-miterlimit:4;stroke-dasharray:none;stroke-opacity:1"
       id="path5146"
       cx="26.11113"
       cy="22.071627"
       rx="0.87406993"
       ry="0.80319941" />
    <circle
       style="opacity:1;fill:#333333;fill-opacity:1;stroke:#cd0047;stroke-width:0;stroke-miterlimit:4;stroke-dasharray:none;stroke-opacity:1"
       id="path5148"
       cx="25.189819"
       cy="24.103258"
       r="0.47247022" />
    <circle
       style="opacity:1;fill:#333333;fill-opacity:1;stroke:#cd0047;stroke-width:0;stroke-miterlimit:4;stroke-dasharray:none;stroke-opacity:1"
       id="path5152"
       cx="26.867096"
       cy="29.41852"
       r="0.40159971" />
    <path
       style="display:inline;opacity:0.39899998;fill:#333333;stroke:#000000;stroke-width:0;stroke-linecap:butt;stroke-linejoin:miter;stroke-miterlimit:4;stroke-dasharray:none;stroke-opacity:1"
       d="m 19.127399,13.718142 c -4.97361,11.32116 -5.10171,17.1178 0.13777,20.65809 -3.29595,-0.0937 -5.73183,-1.17339 -7.48536,-2.71954 -1.33435,-1.17654 -2.3494099,-2.83084 -2.8854299,-4.40512 -0.71415,-2.09746 -0.65118,-4.19935 -0.0692,-6.2584 0.60069,-2.12525 2.2028599,-4.20859 4.2620599,-5.59301 1.70989,-1.14958 3.83078,-1.75564 6.04017,-1.68202 z"
       id="path5045-7"
       inkscape:connector-curvature="0"
       sodipodi:nodetypes="ccssssc" />
    <path
       style="display:inline;opacity:0.594;fill:#323232;fill-opacity:1;stroke:#000000;stroke-width:0;stroke-linecap:butt;stroke-linejoin:miter;stroke-miterlimit:4;stroke-dasharray:none;stroke-opacity:1"
       d="m 23.112146,17.207902 -11.101657,1.57783 c -1.91528,1.9735 -1.3511,3.61642 0.50461,5.08712 l 3.46401,-0.55768 c 0.55698,0.67765 0.30312,0.87867 0.24181,1.26499 l -2.40221,0.40804 c -1.56261,2.13626 -0.28878,2.55991 0.42052,3.31888 3.03282,-0.39805 3.34159,-0.41797 4.41543,-0.54408 0.34495,0.34649 0.59048,0.71582 0.30499,1.20706 l -1.33038,0.34232 c -1.27108,1.09905 -0.5966,2.0538 0.30238,2.48122 0.72938,-0.11874 3.833958,-0.45341 7.299247,-0.82087 0.71141,-0.72302 1.53627,-1.92916 -0.33677,-2.65219 l -4.368107,0.48774 c -0.36816,-0.36656 -0.67653,-0.73312 -0.27338,-1.09969 0.616488,-0.13577 0.991878,-0.22794 2.102418,-0.45308 1.792859,-1.20921 1.766559,-2.69473 -0.79899,-3.42768 0,0 -3.330778,0.50554 -3.574228,0.39867 -0.24345,-0.10686 -0.66545,-0.65008 -0.21025,-1.18337 0.4552,-0.53329 6.602137,-1.04735 6.602137,-1.04735 1.27453,-1.76075 1.3663,-3.57826 -1.26158,-4.78788 z"
       id="path5072"
       inkscape:connector-curvature="0"
       sodipodi:nodetypes="ccccccccccccccccczzccc" />
    <ellipse
       style="display:inline;opacity:0.131;fill:#808080;fill-opacity:0.95686275;stroke-width:0.1121701"
       id="ellipse12341"
       cx="18.898809"
       cy="24.101198"
       rx="13.108212"
       ry="12.75316" />
  </g>
</svg>
