<?xml version="1.0" encoding="UTF-8" standalone="no"?>
<!-- Created with Inkscape (http://www.inkscape.org/) -->

<svg
   xmlns:dc="http://purl.org/dc/elements/1.1/"
   xmlns:cc="http://creativecommons.org/ns#"
   xmlns:rdf="http://www.w3.org/1999/02/22-rdf-syntax-ns#"
   xmlns:svg="http://www.w3.org/2000/svg"
   xmlns="http://www.w3.org/2000/svg"
   xmlns:xlink="http://www.w3.org/1999/xlink"
   xmlns:sodipodi="http://sodipodi.sourceforge.net/DTD/sodipodi-0.dtd"
   xmlns:inkscape="http://www.inkscape.org/namespaces/inkscape"
   width="53.926395mm"
   height="24.104633mm"
   viewBox="0 0 53.926395 24.104633"
   version="1.1"
   id="svg3047"
   sodipodi:docname="saturn.svg"
   inkscape:version="0.92.3 (2405546, 2018-03-11)">
  <defs
     id="defs3041">
    <radialGradient
       inkscape:collect="always"
       xlink:href="#linearGradient2748"
       id="radialGradient2752"
       cx="153.03485"
       cy="76.438011"
       fx="153.03485"
       fy="76.438011"
       r="26.958931"
       gradientTransform="matrix(1,0,0,0.32469219,-36.613927,107.80921)"
       gradientUnits="userSpaceOnUse" />
    <linearGradient
       inkscape:collect="always"
       id="linearGradient2748">
      <stop
         style="stop-color:#5d2922;stop-opacity:1;"
         offset="0"
         id="stop2744" />
      <stop
         style="stop-color:#5d2922;stop-opacity:0;"
         offset="1"
         id="stop2746" />
    </linearGradient>
  </defs>
  <sodipodi:namedview
     id="base"
     pagecolor="#ffffff"
     bordercolor="#666666"
     borderopacity="1.0"
     inkscape:pageopacity="0.0"
     inkscape:pageshadow="2"
     inkscape:zoom="0.35"
     inkscape:cx="911.77378"
     inkscape:cy="844.82631"
     inkscape:document-units="mm"
     inkscape:current-layer="layer1"
     showgrid="false"
     inkscape:window-width="1920"
     inkscape:window-height="1025"
     inkscape:window-x="0"
     inkscape:window-y="27"
     inkscape:window-maximized="1" />
  <metadata
     id="metadata3044">
    <rdf:RDF>
      <cc:Work
         rdf:about="">
        <dc:format>image/svg+xml</dc:format>
        <dc:type
           rdf:resource="http://purl.org/dc/dcmitype/StillImage" />
        <dc:title></dc:title>
      </cc:Work>
    </rdf:RDF>
  </metadata>
  <g
     inkscape:label="Calque 1"
     inkscape:groupmode="layer"
     id="layer1"
     transform="translate(-89.453469,-120.90602)">
    <ellipse
       style="opacity:1;fill:#938b7e;fill-opacity:1;stroke:#cd0047;stroke-width:0;stroke-miterlimit:4;stroke-dasharray:none;stroke-opacity:1"
       id="path12036"
       cx="114.06371"
       cy="132.95401"
       rx="12.898438"
       ry="12.047991" />
    <path
       style="display:inline;opacity:1;fill:#b0ad9a;fill-opacity:1;stroke:#000000;stroke-width:0;stroke-linecap:butt;stroke-linejoin:miter;stroke-miterlimit:4;stroke-dasharray:none;stroke-opacity:1"
       d="m 106.26009,124.27895 c 1.61845,-0.19706 2.08731,0.3191 1.43173,1.63431 -0.72822,0.37566 -2.70691,1.49461 -3.44463,1.85853 -0.41929,0.47061 0.1051,1.27607 0.75669,1.16032 l 9.63548,-4.7825 c 2.66871,0.32511 2.86752,2.38675 1.42971,3.2804 l -6.25093,3.09536 c 7.4e-4,0.31023 -0.26398,1.17059 0.6977,1.39601 l 9.5343,-4.74941 c 0.2883,-0.0149 0.48599,-0.10195 0.70168,-0.0284 0.53245,0.18148 0.85557,0.71513 0.5936,1.15654 -0.24588,0.41493 -1.14253,0.80255 -2.0078,1.25274 -3.14827,1.60405 -2.08072,1.04176 -4.36471,2.25644 -0.0568,0.51469 0.27774,1.03066 0.58022,1.06056 1.93616,-0.75656 3.8589,-1.82984 5.36052,-2.65094 0.81451,-0.0857 0.88681,0.5556 0.52368,0.9462 -0.65643,0.70605 -6.80632,3.46382 -7.10568,3.99741 -0.1063,0.18941 0.20645,0.91604 0.44036,0.81748 1.23872,-0.52181 4.2405,-2.22508 4.46485,-2.16966 0.55888,0.13818 0.82948,0.21379 0.73984,1.12153 l -8.51221,4.41539 c -0.13637,0.1638 0.0322,1.24452 0.88941,0.93747 1.85817,-0.66563 5.97707,-2.87507 6.36217,-3.02454 0.5235,-0.2034 2.38189,-0.15652 1.44501,1.27555 -0.0818,0.12502 -5.14272,2.74161 -5.19036,2.88584 -0.24145,0.73116 0.4781,0.76443 0.68785,0.7985 0.19061,0.0309 10.26149,-4.96069 10.37319,-4.81708 -0.48651,1.19657 -1.02795,1.7675 -1.51573,2.64412 -0.28627,0.51445 -1.31317,1.32963 -1.72312,1.74989 -2.48183,2.54424 -6.48927,3.5186 -10.15854,3.13179 -2.19029,-0.23089 -4.20631,-1.01132 -5.85422,-2.05379 -4.51976,-2.85923 -6.939462,-8.15937 -5.11196,-13.25115 0.55802,-1.55478 0.92214,-2.6065 2.37097,-4.1488 z"
       id="path167-3"
       inkscape:connector-curvature="0"
       sodipodi:nodetypes="cccccccccssccccssssccssssscssssscc" />
    <path
       style="opacity:0.89299999;fill:#938b7e;fill-opacity:1;stroke:url(#radialGradient2752);stroke-width:0.1;stroke-linecap:round;stroke-miterlimit:4;stroke-dasharray:none;stroke-opacity:1"
       d="m 137.84406,123.92827 c -0.38403,-0.006 -0.7858,-0.005 -1.20458,0.004 -3.24459,0.0702 -7.85856,0.56378 -12.53737,1.44324 0.23366,0.29686 0.43025,0.57152 0.74334,0.98752 4.39939,-0.75826 7.9045,-1.16683 10.68454,-1.09751 2.74036,0.0707 4.34623,0.56397 4.62659,1.42111 0.80908,2.47106 -9.36934,7.28864 -22.7335,10.76006 -13.36365,3.47132 -24.852093,4.28202 -25.659932,1.81074 -0.504579,-1.57759 2.25282,-3.59967 9.306222,-6.30623 0.0309,-0.3744 0.0448,-0.66335 0.11693,-1.24391 -8.368915,3.15225 -12.130671,6.08985 -11.640592,7.9589 0.741129,2.8269 13.373642,1.9674 28.215852,-1.91978 14.84242,-3.88717 26.27448,-9.33019 25.53436,-12.15739 -0.27036,-1.03153 -2.17067,-1.61045 -5.45186,-1.66088 z"
       id="path900"
       inkscape:connector-curvature="0"
       sodipodi:nodetypes="ccccccccccccccc" />
  </g>
</svg>
